<svg width="22" height="21" viewBox="0 0 22 21" fill="none" xmlns="http://www.w3.org/2000/svg">
<path fill-rule="evenodd" clip-rule="evenodd" d="M8.69907 2.51857C9.56146 0.488601 12.4386 0.4886 13.301 2.51857L14.8586 6.18501L18.7069 6.50733C20.8844 6.6897 21.7965 9.38126 20.1785 10.8498L17.2355 13.5208L18.1989 17.957C18.6855 20.1983 16.1495 21.8572 14.291 20.5134L11 18.1339L7.70911 20.5134C5.85053 21.8573 3.31452 20.1983 3.80122 17.957L4.76453 13.5208L1.82155 10.8498C0.203466 9.38129 1.11554 6.6897 3.29305 6.50733L7.14146 6.18501L8.69907 2.51857ZM11.4602 3.30059C11.2877 2.8946 10.7123 2.8946 10.5398 3.30059L8.86431 7.2446C8.64672 7.75678 8.16346 8.10641 7.60892 8.15286L3.45998 8.50035C3.02447 8.53682 2.84206 9.07514 3.16567 9.36885L6.32252 12.234C6.71952 12.5943 6.89404 13.1391 6.78027 13.663L5.75567 18.3814C5.65833 18.8297 6.16553 19.1614 6.53725 18.8927L10.1211 16.3013C10.6457 15.9221 11.3544 15.9221 11.8789 16.3013L15.4628 18.8927C15.8345 19.1614 16.3417 18.8297 16.2444 18.3814L15.2198 13.663C15.106 13.1391 15.2805 12.5943 15.6775 12.234L18.8343 9.36884C19.1579 9.07514 18.9755 8.53682 18.54 8.50035L14.3911 8.15286C13.8366 8.10641 13.3534 7.75678 13.1358 7.2446L11.4602 3.30059Z" fill="#999999"/>
</svg>
