<svg width="20" height="20" viewBox="0 0 20 20" fill="none" xmlns="http://www.w3.org/2000/svg">
<path d="M5 12.5001C5 12.0398 5.3731 11.6667 5.83333 11.6667H9.16667C9.6269 11.6667 10 12.0398 10 12.5001C10 12.9603 9.6269 13.3334 9.16667 13.3334H5.83333C5.3731 13.3334 5 12.9603 5 12.5001Z" fill="#12131A"/>
<path d="M1.66666 7.5H18.3333V9.16667H1.66666V7.5Z" fill="#12131A"/>
<path fill-rule="evenodd" clip-rule="evenodd" d="M6.46558 3.33325H13.5344C14.2052 3.33324 14.7589 3.33323 15.2098 3.37008C15.6783 3.40835 16.1088 3.49049 16.5133 3.69656C17.1405 4.01614 17.6504 4.52608 17.97 5.15328C18.1761 5.55773 18.2582 5.98832 18.2965 6.45673C18.3333 6.90772 18.3333 7.46135 18.3333 8.13215V11.8677C18.3333 12.5385 18.3333 13.0921 18.2965 13.5431C18.2582 14.0115 18.1761 14.4421 17.97 14.8466C17.6504 15.4738 17.1405 15.9837 16.5133 16.3033C16.1088 16.5094 15.6783 16.5915 15.2098 16.6298C14.7588 16.6666 14.2052 16.6666 13.5344 16.6666H6.46559C5.79478 16.6666 5.24114 16.6666 4.79014 16.6298C4.32172 16.5915 3.89114 16.5094 3.48669 16.3033C2.85948 15.9837 2.34955 15.4738 2.02997 14.8466C1.82389 14.4421 1.74176 14.0115 1.70349 13.5431C1.66664 13.0921 1.66665 12.5385 1.66666 11.8677V8.13217C1.66665 7.46136 1.66664 6.90773 1.70349 6.45673C1.74176 5.98832 1.82389 5.55773 2.02997 5.15328C2.34955 4.52608 2.85948 4.01614 3.48669 3.69656C3.89114 3.49049 4.32172 3.40835 4.79014 3.37008C5.24113 3.33323 5.79477 3.33324 6.46558 3.33325ZM4.92586 5.03121C4.56051 5.06106 4.37367 5.11517 4.24334 5.18158C3.92974 5.34136 3.67477 5.59633 3.51498 5.90994C3.44857 6.04027 3.39447 6.2271 3.36462 6.59245C3.33397 6.96753 3.33332 7.45277 3.33332 8.16659V11.8333C3.33332 12.5471 3.33397 13.0323 3.36462 13.4074C3.39447 13.7727 3.44857 13.9596 3.51498 14.0899C3.67477 14.4035 3.92974 14.6585 4.24334 14.8183C4.37367 14.8847 4.56051 14.9388 4.92586 14.9686C5.30093 14.9993 5.78617 14.9999 6.49999 14.9999H13.5C14.2138 14.9999 14.6991 14.9993 15.0741 14.9686C15.4395 14.9388 15.6263 14.8847 15.7566 14.8183C16.0702 14.6585 16.3252 14.4035 16.485 14.0899C16.5514 13.9596 16.6055 13.7727 16.6354 13.4074C16.666 13.0323 16.6667 12.5471 16.6667 11.8333V8.16659C16.6667 7.45277 16.666 6.96753 16.6354 6.59245C16.6055 6.2271 16.5514 6.04027 16.485 5.90994C16.3252 5.59633 16.0702 5.34136 15.7566 5.18158C15.6263 5.11517 15.4395 5.06106 15.0741 5.03121C14.6991 5.00057 14.2138 4.99992 13.5 4.99992H6.49999C5.78617 4.99992 5.30093 5.00057 4.92586 5.03121Z" fill="#12131A"/>
</svg>
