<svg width="184" height="100" viewBox="0 0 184 100" fill="none" xmlns="http://www.w3.org/2000/svg">
<rect width="184" height="100" fill="#F8F9FA"/>
<path fill-rule="evenodd" clip-rule="evenodd" d="M84.6059 44.0315C84.3334 44.5663 84.3334 45.2664 84.3334 46.6665V55.2397L86.2917 54.0287L86.3573 53.9881C86.632 53.8175 86.9083 53.6459 87.2196 53.5659C87.4914 53.4959 87.7744 53.4817 88.0518 53.5238C88.3696 53.5722 88.6618 53.715 88.9524 53.8571L89.0217 53.8909L89.462 54.1052C89.9031 54.3199 89.9557 54.3342 89.9909 54.3388C90.0502 54.3466 90.1105 54.3416 90.1677 54.324C90.2016 54.3136 90.2511 54.2908 90.6504 54.0057L92.7384 52.5148L92.816 52.4592C93.1362 52.2295 93.4576 51.999 93.8284 51.9C94.1514 51.8139 94.4903 51.8067 94.8167 51.879C95.1913 51.9621 95.5222 52.1788 95.8519 52.3947L95.9317 52.4469L97.6667 53.5775V49.1665C97.6667 48.9331 97.6667 48.8165 97.6213 48.7273C97.5813 48.6489 97.5176 48.5852 97.4392 48.5453C97.3501 48.4998 97.2334 48.4998 97 48.4998H95.1667C93.3258 48.4998 91.8334 47.0075 91.8334 45.1665V43.3332C91.8334 43.0998 91.8334 42.9831 91.788 42.894C91.748 42.8156 91.6843 42.7519 91.6059 42.7119C91.5167 42.6665 91.4001 42.6665 91.1667 42.6665H88.3334C86.9332 42.6665 86.2332 42.6665 85.6984 42.939C85.228 43.1787 84.8455 43.5611 84.6059 44.0315ZM97.6667 55.5668L95.0218 53.8433C94.5529 53.5377 94.494 53.5146 94.4558 53.5062C94.3905 53.4917 94.3227 53.4931 94.2581 53.5104C94.2202 53.5205 94.1623 53.546 93.7069 53.8712L91.6189 55.3621L91.5512 55.4105C91.2689 55.6129 90.9852 55.8164 90.6573 55.9171C90.3713 56.005 90.0698 56.0303 89.7731 55.9912C89.4331 55.9464 89.1194 55.793 88.8074 55.6404L88.7326 55.6038L88.2923 55.3896C87.8827 55.1902 87.8343 55.1766 87.8013 55.1716C87.7458 55.1631 87.6892 55.166 87.6348 55.18C87.6025 55.1883 87.5558 55.2067 87.1682 55.4463L84.3864 57.1664C84.4249 57.4893 84.4913 57.7433 84.6059 57.9681C84.8455 58.4386 85.228 58.821 85.6984 59.0607C86.2332 59.3332 86.9332 59.3332 88.3334 59.3332H93.6667C95.0668 59.3332 95.7669 59.3332 96.3017 59.0607C96.7721 58.821 97.1545 58.4386 97.3942 57.9681C97.6511 57.464 97.6658 56.8129 97.6667 55.5668ZM91 50.1665C91 51.087 90.2538 51.8332 89.3334 51.8332C88.4129 51.8332 87.6667 51.087 87.6667 50.1665C87.6667 49.246 88.4129 48.4998 89.3334 48.4998C90.2538 48.4998 91 49.246 91 50.1665Z" fill="#999999"/>
<path d="M93.5 43.2558C93.5 42.9303 93.7638 42.6665 94.0893 42.6665C94.2455 42.6665 94.3954 42.7286 94.5059 42.8391L97.4941 45.8272C97.6046 45.9378 97.6667 46.0876 97.6667 46.2439C97.6667 46.5694 97.4028 46.8332 97.0774 46.8332H95.1667C94.2462 46.8332 93.5 46.087 93.5 45.1665V43.2558Z" fill="#999999"/>
</svg>
