<svg width="20" height="20" viewBox="0 0 20 20" fill="none" xmlns="http://www.w3.org/2000/svg">
<g clip-path="url(#clip0_6001_16075)">
<path d="M18.4837 11.3201L17.0096 6.01662C16.5776 4.46292 15.6386 3.09822 14.3419 2.13946C13.0452 1.18069 11.4652 0.682875 9.85309 0.725142C8.24098 0.767408 6.68927 1.34733 5.44459 2.37273C4.19992 3.39812 3.33371 4.81015 2.98366 6.38435L1.84243 11.5164C1.71637 12.0834 1.71929 12.6716 1.85096 13.2374C1.98263 13.8032 2.2397 14.3322 2.60318 14.7853C2.96667 15.2385 3.42728 15.6042 3.95103 15.8555C4.47477 16.1068 5.04827 16.2372 5.62919 16.2372H6.49344C6.67151 17.1141 7.14725 17.9025 7.84006 18.4687C8.53287 19.035 9.40015 19.3444 10.2949 19.3444C11.1897 19.3444 12.057 19.035 12.7498 18.4687C13.4426 17.9025 13.9184 17.1141 14.0964 16.2372H14.7466C15.3446 16.2373 15.9345 16.099 16.4702 15.8333C17.006 15.5677 17.4731 15.1817 17.835 14.7056C18.1968 14.2296 18.4438 13.6763 18.5564 13.089C18.6691 12.5017 18.6445 11.8963 18.4844 11.3201H18.4837ZM10.2949 17.7888C9.81528 17.7868 9.34796 17.6367 8.95689 17.359C8.56583 17.0812 8.27013 16.6894 8.11024 16.2372H12.4796C12.3198 16.6894 12.0241 17.0812 11.633 17.359C11.2419 17.6367 10.7746 17.7868 10.2949 17.7888ZM16.5992 13.7662C16.383 14.053 16.1029 14.2855 15.7812 14.445C15.4595 14.6046 15.1049 14.687 14.7458 14.6856H5.62919C5.28068 14.6855 4.93663 14.6072 4.62244 14.4564C4.30825 14.3056 4.03194 14.0861 3.8139 13.8143C3.59587 13.5424 3.44167 13.225 3.36269 12.8856C3.28371 12.5461 3.28197 12.1933 3.3576 11.8531L4.49805 6.72028C4.77296 5.48379 5.45331 4.37468 6.43096 3.56927C7.4086 2.76385 8.62742 2.30835 9.89367 2.27518C11.1599 2.24201 12.4009 2.63307 13.4194 3.38619C14.4379 4.13931 15.1753 5.21128 15.5146 6.43168L16.9887 11.7352C17.0861 12.0807 17.1016 12.4442 17.034 12.7967C16.9664 13.1493 16.8175 13.4812 16.5992 13.7662Z" fill="#0C1A30"/>
</g>
<defs>
<clipPath id="clip0_6001_16075">
<rect width="18.6196" height="18.6196" fill="white" transform="translate(0.983398 0.720703)"/>
</clipPath>
</defs>
</svg>
