<svg width="16" height="16" viewBox="0 0 16 16" fill="none" xmlns="http://www.w3.org/2000/svg">
<path fill-rule="evenodd" clip-rule="evenodd" d="M2.66666 4.66667C2.66666 2.82572 4.15904 1.33333 5.99999 1.33333H9.99995C11.8409 1.33333 13.3333 2.82572 13.3333 4.66667V12.6595C13.3333 14.362 11.3417 15.286 10.0418 14.1866L8.43049 12.8239C8.18197 12.6137 7.81801 12.6137 7.56949 12.8239L5.95815 14.1866C4.65822 15.286 2.66666 14.362 2.66666 12.6595V4.66667ZM5.99999 2.66667C4.89542 2.66667 3.99999 3.5621 3.99999 4.66667V12.6595C3.99999 13.227 4.66384 13.535 5.09715 13.1685L6.70849 11.8058C7.45405 11.1753 8.54593 11.1753 9.29149 11.8058L10.9028 13.1685C11.3361 13.535 12 13.227 12 12.6595V4.66667C12 3.5621 11.1045 2.66667 9.99995 2.66667H5.99999Z" fill="#333333"/>
<path fill-rule="evenodd" clip-rule="evenodd" d="M10.4714 4.86193C10.7318 5.12228 10.7318 5.54439 10.4714 5.80474L7.80475 8.47141C7.5444 8.73176 7.12229 8.73176 6.86194 8.47141L5.52861 7.13807C5.26826 6.87772 5.26826 6.45561 5.52861 6.19526C5.78896 5.93491 6.21107 5.93491 6.47141 6.19526L7.33334 7.05719L9.52861 4.86193C9.78896 4.60158 10.2111 4.60158 10.4714 4.86193Z" fill="#333333"/>
</svg>
