<svg width="19" height="20" viewBox="0 0 19 20" fill="none" xmlns="http://www.w3.org/2000/svg">
<path fill-rule="evenodd" clip-rule="evenodd" d="M17.8438 3.8837C17.6255 3.62182 17.3523 3.41119 17.0435 3.26679C16.7347 3.12238 16.3979 3.04773 16.057 3.04815H3.51367L3.48108 2.77584C3.4144 2.20982 3.14235 1.68794 2.71651 1.30914C2.29067 0.930347 1.74064 0.720968 1.1707 0.720703H0.998472C0.792713 0.720703 0.595381 0.802441 0.449887 0.947934C0.304394 1.09343 0.222656 1.29076 0.222656 1.49652C0.222656 1.70228 0.304394 1.89961 0.449887 2.0451C0.595381 2.1906 0.792713 2.27233 0.998472 2.27233H1.1707C1.36073 2.27236 1.54413 2.34212 1.68613 2.46839C1.82813 2.59467 1.91885 2.76866 1.94109 2.95738L3.00861 12.0344C3.11944 12.9784 3.573 13.8489 4.2832 14.4806C4.99341 15.1123 5.91082 15.4612 6.86131 15.4612H14.9631C15.1689 15.4612 15.3662 15.3795 15.5117 15.234C15.6572 15.0885 15.739 14.8911 15.739 14.6854C15.739 14.4796 15.6572 14.2823 15.5117 14.1368C15.3662 13.9913 15.1689 13.9096 14.9631 13.9096H6.86131C6.38112 13.9082 5.91311 13.7584 5.52142 13.4806C5.12974 13.2028 4.83357 12.8107 4.67351 12.3579H13.9212C14.8307 12.358 15.7113 12.0385 16.4091 11.4552C17.107 10.872 17.5777 10.0621 17.739 9.16701L18.348 5.78911C18.4088 5.45396 18.3952 5.10954 18.308 4.78026C18.2209 4.45099 18.0624 4.1449 17.8438 3.8837ZM16.8251 5.51369L16.2153 8.89159C16.1184 9.42923 15.8355 9.91566 15.4161 10.2657C14.9967 10.6158 14.4675 10.8071 13.9212 10.8063H4.4268L3.69676 4.59978H16.057C16.171 4.5991 16.2837 4.62354 16.3872 4.67135C16.4906 4.71917 16.5823 4.78919 16.6556 4.87644C16.7289 4.96369 16.7821 5.06602 16.8114 5.17616C16.8407 5.2863 16.8454 5.40154 16.8251 5.51369ZM5.65304 19.3402C6.50999 19.3402 7.20468 18.6455 7.20468 17.7885C7.20468 16.9316 6.50999 16.2369 5.65304 16.2369C4.7961 16.2369 4.10141 16.9316 4.10141 17.7885C4.10141 18.6455 4.7961 19.3402 5.65304 19.3402ZM14.9632 17.7885C14.9632 18.6455 14.2685 19.3402 13.4116 19.3402C12.5546 19.3402 11.8599 18.6455 11.8599 17.7885C11.8599 16.9316 12.5546 16.2369 13.4116 16.2369C14.2685 16.2369 14.9632 16.9316 14.9632 17.7885Z" fill="#0C1A30"/>
</svg>
