<svg width="16" height="16" viewBox="0 0 16 16" fill="none" xmlns="http://www.w3.org/2000/svg">
<path fill-rule="evenodd" clip-rule="evenodd" d="M6.9048 2H9.35701C9.95818 2 10.4431 1.99999 10.8378 2.02692C11.2436 2.05461 11.6025 2.11299 11.9423 2.25374C12.759 2.59205 13.408 3.24096 13.7463 4.05772C13.887 4.39752 13.9454 4.75638 13.9731 5.1622C14 5.55687 14 6.04181 14 6.64298V6.69035C14 7.29152 14 7.77646 13.9731 8.17113C13.9454 8.57696 13.887 8.93581 13.7463 9.27561C13.408 10.0924 12.759 10.7413 11.9423 11.0796C11.6025 11.2203 11.2436 11.2787 10.8378 11.3064C10.4431 11.3333 9.95819 11.3333 9.35702 11.3333H7.61905C7.31266 11.3333 7.25157 11.3364 7.20173 11.3465C7.08562 11.3698 6.97783 11.4237 6.88946 11.5026C6.85153 11.5364 6.81241 11.5835 6.62857 11.8286L6.61421 11.8477C6.21039 12.3861 5.8886 12.8152 5.62528 13.1254C5.37776 13.417 5.09797 13.7103 4.76406 13.8483C3.84524 14.2281 2.78693 13.8754 2.27977 13.0202C2.09546 12.7094 2.04759 12.3069 2.02453 11.9252C1.99999 11.519 2 10.9827 2 10.3097V6.90479C1.99999 6.18227 1.99999 5.5995 2.03855 5.12758C2.07825 4.64168 2.16212 4.21489 2.36331 3.82003C2.68289 3.19282 3.19283 2.68289 3.82003 2.36331C4.21489 2.16212 4.64168 2.07825 5.12758 2.03855C5.5995 1.99999 6.18227 1.99999 6.9048 2ZM5.23616 3.36745C4.83272 3.40041 4.60092 3.46186 4.42535 3.55132C4.04903 3.74307 3.74307 4.04903 3.55132 4.42535C3.46186 4.60092 3.40041 4.83272 3.36745 5.23616C3.33385 5.64739 3.33333 6.1756 3.33333 6.93333V10.2857C3.33333 10.9881 3.33363 11.4838 3.35544 11.8448C3.36622 12.0234 3.3813 12.1489 3.39902 12.2373C3.41405 12.3123 3.42714 12.3404 3.42787 12.3422C3.59699 12.625 3.94741 12.7418 4.25237 12.6171C4.25403 12.616 4.28136 12.6014 4.33838 12.5505C4.40563 12.4903 4.49301 12.399 4.60879 12.2626C4.84281 11.9869 5.14049 11.5905 5.5619 11.0286C5.57157 11.0157 5.58114 11.0029 5.59063 10.9902C5.72952 10.8047 5.85156 10.6418 6.0017 10.5078C6.26682 10.2712 6.59019 10.1095 6.93853 10.0394C7.13581 9.99963 7.33942 9.99979 7.57115 9.99997C7.58698 9.99999 7.60295 10 7.61905 10H9.33333C9.96371 10 10.4031 9.99964 10.747 9.97617C11.085 9.95311 11.2818 9.91 11.432 9.84776C11.9221 9.64477 12.3114 9.25542 12.5144 8.76537C12.5767 8.61511 12.6198 8.41831 12.6428 8.08037C12.6663 7.73644 12.6667 7.29704 12.6667 6.66667C12.6667 6.03629 12.6663 5.59689 12.6428 5.25297C12.6198 4.91502 12.5767 4.71822 12.5144 4.56797C12.3114 4.07791 11.9221 3.68856 11.432 3.48557C11.2818 3.42334 11.085 3.38022 10.747 3.35716C10.4031 3.33369 9.96371 3.33333 9.33333 3.33333H6.93333C6.1756 3.33333 5.64739 3.33385 5.23616 3.36745Z" fill="#333333"/>
<path d="M5.33332 4.66667C4.96513 4.66667 4.66666 4.96515 4.66666 5.33334C4.66666 5.70153 4.96513 6.00001 5.33332 6.00001H10.6667C11.0348 6.00001 11.3333 5.70153 11.3333 5.33334C11.3333 4.96515 11.0348 4.66667 10.6667 4.66667H5.33332Z" fill="#333333"/>
<path d="M5.33332 7.33334C4.96513 7.33334 4.66666 7.63182 4.66666 8.00001C4.66666 8.3682 4.96513 8.66667 5.33332 8.66667H7.33332C7.70151 8.66667 7.99999 8.3682 7.99999 8.00001C7.99999 7.63182 7.70151 7.33334 7.33332 7.33334H5.33332Z" fill="#333333"/>
</svg>
