<svg width="21" height="20" viewBox="0 0 21 20" fill="none" xmlns="http://www.w3.org/2000/svg">
<path fill-rule="evenodd" clip-rule="evenodd" d="M7.79892 4.16666H13.2011C13.8719 4.16665 14.4255 4.16664 14.8765 4.20349C15.3449 4.24176 15.7755 4.32389 16.18 4.52997C16.8072 4.84955 17.3171 5.35948 17.6367 5.98669C17.8428 6.39114 17.9249 6.82172 17.9632 7.29014C18 7.74113 18 8.29476 18 8.96555V12.7011C18 13.3719 18 13.9255 17.9632 14.3765C17.9249 14.8449 17.8428 15.2755 17.6367 15.68C17.3171 16.3072 16.8072 16.8171 16.18 17.1367C15.7755 17.3428 15.3449 17.4249 14.8765 17.4632C14.4255 17.5 13.8719 17.5 13.2011 17.5H7.79894C7.12812 17.5 6.57448 17.5 6.12348 17.4632C5.65506 17.4249 5.22448 17.3428 4.82003 17.1367C4.19283 16.8171 3.68289 16.3072 3.36331 15.68C3.15724 15.2755 3.0751 14.8449 3.03683 14.3765C2.99998 13.9255 2.99999 13.3719 3 12.7011V8.96558C2.99999 8.29477 2.99998 7.74113 3.03683 7.29014C3.0751 6.82172 3.15724 6.39114 3.36331 5.98669C3.68289 5.35948 4.19283 4.84955 4.82003 4.52997C5.22448 4.32389 5.65506 4.24176 6.12348 4.20349C6.57448 4.16664 7.12811 4.16665 7.79892 4.16666ZM6.2592 5.86462C5.89385 5.89447 5.70702 5.94857 5.57668 6.01498C5.26308 6.17477 5.00811 6.42974 4.84832 6.74334C4.78191 6.87367 4.72781 7.06051 4.69796 7.42586C4.66732 7.80093 4.66667 8.28617 4.66667 8.99999V12.6667C4.66667 13.3805 4.66732 13.8657 4.69796 14.2408C4.72781 14.6061 4.78191 14.793 4.84832 14.9233C5.00811 15.2369 5.26308 15.4919 5.57668 15.6517C5.70702 15.7181 5.89385 15.7722 6.2592 15.802C6.63427 15.8327 7.11952 15.8333 7.83333 15.8333H13.1667C13.8805 15.8333 14.3657 15.8327 14.7408 15.802C15.1061 15.7722 15.293 15.7181 15.4233 15.6517C15.7369 15.4919 15.9919 15.2369 16.1517 14.9233C16.2181 14.793 16.2722 14.6061 16.302 14.2408C16.3327 13.8657 16.3333 13.3805 16.3333 12.6667V8.99999C16.3333 8.28617 16.3327 7.80093 16.302 7.42586C16.2722 7.06051 16.2181 6.87367 16.1517 6.74334C15.9919 6.42974 15.7369 6.17477 15.4233 6.01498C15.293 5.94857 15.1061 5.89447 14.7408 5.86462C14.3657 5.83397 13.8805 5.83332 13.1667 5.83332H7.83333C7.11952 5.83332 6.63427 5.83397 6.2592 5.86462Z" fill="#999999"/>
<path d="M8.00004 3.33333C8.00004 2.8731 7.62694 2.5 7.16671 2.5C6.70647 2.5 6.33337 2.8731 6.33337 3.33333V5C6.33337 5.46024 6.70647 5.83333 7.16671 5.83333C7.62694 5.83333 8.00004 5.46024 8.00004 5V3.33333Z" fill="#999999"/>
<path d="M14.6667 3.33333C14.6667 2.8731 14.2936 2.5 13.8334 2.5C13.3731 2.5 13 2.8731 13 3.33333V5C13 5.46024 13.3731 5.83333 13.8334 5.83333C14.2936 5.83333 14.6667 5.46024 14.6667 5V3.33333Z" fill="#999999"/>
<path fill-rule="evenodd" clip-rule="evenodd" d="M7.16671 10C7.62694 10 8.00004 9.62691 8.00004 9.16668C8.00004 8.70644 7.62694 8.33334 7.16671 8.33334C6.70647 8.33334 6.33337 8.70644 6.33337 9.16668C6.33337 9.62691 6.70647 10 7.16671 10ZM11.3334 9.16668C11.3334 9.62691 10.9603 10 10.5 10C10.0398 10 9.66671 9.62691 9.66671 9.16668C9.66671 8.70644 10.0398 8.33334 10.5 8.33334C10.9603 8.33334 11.3334 8.70644 11.3334 9.16668ZM14.6667 9.16668C14.6667 9.62691 14.2936 10 13.8334 10C13.3731 10 13 9.62691 13 9.16668C13 8.70644 13.3731 8.33334 13.8334 8.33334C14.2936 8.33334 14.6667 8.70644 14.6667 9.16668ZM11.3334 12.5C11.3334 12.9602 10.9603 13.3333 10.5 13.3333C10.0398 13.3333 9.66671 12.9602 9.66671 12.5C9.66671 12.0398 10.0398 11.6667 10.5 11.6667C10.9603 11.6667 11.3334 12.0398 11.3334 12.5ZM7.16671 13.3333C7.62694 13.3333 8.00004 12.9602 8.00004 12.5C8.00004 12.0398 7.62694 11.6667 7.16671 11.6667C6.70647 11.6667 6.33337 12.0398 6.33337 12.5C6.33337 12.9602 6.70647 13.3333 7.16671 13.3333Z" fill="#999999"/>
</svg>
