<svg width="24" height="24" viewBox="0 0 24 24" fill="none" xmlns="http://www.w3.org/2000/svg">
<path fill-rule="evenodd" clip-rule="evenodd" d="M6 16L6 4L17.496 4C19.6072 4 20.7685 6.4554 19.4279 8.08705L17.8562 10L19.4279 11.913C20.7685 13.5446 19.6072 16 17.496 16H6ZM8 14H17.496C17.9186 14 18.1505 13.5087 17.8826 13.1826L16.3109 11.2696C15.7047 10.5318 15.7046 9.46824 16.3109 8.73036L17.8826 6.81741C18.1505 6.49134 17.9186 6 17.496 6L8 6L8 14Z" fill="white"/>
<path d="M7 2C6.44772 2 6 2.44772 6 3V20H5C4.44772 20 4 20.4477 4 21C4 21.5523 4.44772 22 5 22H9C9.55228 22 10 21.5523 10 21C10 20.4477 9.55228 20 9 20H8V3C8 2.44772 7.55228 2 7 2Z" fill="white"/>
</svg>
