<svg width="21" height="21" viewBox="0 0 21 21" fill="none" xmlns="http://www.w3.org/2000/svg">
<path d="M8.10886 18.5939V15.7389C8.10884 15.0127 8.70087 14.4226 9.43438 14.4177H12.1213C12.8583 14.4177 13.4557 15.0092 13.4557 15.7389V15.7389V18.6028C13.4556 19.2194 13.9526 19.7233 14.5753 19.7377H16.3665C18.1522 19.7377 19.5997 18.3047 19.5997 16.5369V16.5369V8.41502C19.5902 7.71957 19.2604 7.06651 18.7041 6.64169L12.578 1.75616C11.5048 0.905497 9.97918 0.905497 8.90596 1.75616L2.80676 6.65056C2.24839 7.07365 1.91801 7.7278 1.91113 8.42389V16.5369C1.91113 18.3047 3.35869 19.7377 5.14434 19.7377H6.93559C7.57367 19.7377 8.09095 19.2256 8.09095 18.5939V18.5939" stroke="#1E2024" stroke-width="1.86196" stroke-linecap="round" stroke-linejoin="round"/>
</svg>
