<svg width="23" height="23" viewBox="0 0 23 23" fill="none" xmlns="http://www.w3.org/2000/svg">
<path fill-rule="evenodd" clip-rule="evenodd" d="M16.3242 6.19723C16.0848 3.90497 14.1372 2.11772 11.7702 2.11772C10.5553 2.11263 9.38569 2.59036 8.52283 3.44531C7.77381 4.18745 7.30948 5.16077 7.19998 6.19723H7.19914C5.5407 6.19723 4.14734 7.40859 3.75588 9.51189L3.04752 14.9768C2.44455 18.9783 4.32634 20.7373 8.00919 20.7373H15.5476C18.9534 20.7373 20.989 18.7546 20.571 15.1964L19.8397 9.54852C19.3709 7.41905 18.0134 6.19723 16.3907 6.19723H16.3242ZM14.959 6.19723C14.7277 4.65138 13.3878 3.46552 11.7673 3.46552C10.9098 3.46193 10.0862 3.79834 9.47861 4.40036C8.98528 4.88917 8.66733 5.5204 8.56519 6.19723H14.959ZM7.19931 7.54506H16.3909C17.3425 7.54506 18.1786 8.29755 18.5068 9.77963L19.199 15.1489C19.611 18.0056 18.2397 19.3895 15.5478 19.3895H8.00936C5.09447 19.3895 3.91811 18.2899 4.38921 15.1628L5.09374 9.7207C5.36295 8.27979 6.20808 7.54506 7.19931 7.54506ZM14.4485 10.0464C14.8226 10.0464 15.1258 10.3482 15.1258 10.7204C15.1258 11.0615 14.871 11.3435 14.5404 11.3881L14.4485 11.3943H14.4072C14.0332 11.3943 13.7299 11.0925 13.7299 10.7204C13.7299 10.3792 13.9847 10.0972 14.3153 10.0526L14.4072 10.0464H14.4485ZM9.85997 10.7204C9.85997 10.3482 9.55674 10.0464 9.18269 10.0464H9.14136L9.04946 10.0526C8.71888 10.0972 8.46408 10.3792 8.46408 10.7204C8.46408 11.0925 8.76731 11.3943 9.14136 11.3943H9.18269L9.27459 11.3881C9.60517 11.3435 9.85997 11.0615 9.85997 10.7204Z" fill="#0C1A30"/>
</svg>
