<svg width="16" height="16" viewBox="0 0 16 16" fill="none" xmlns="http://www.w3.org/2000/svg">
<path d="M12.5102 0.000377502C12.2878 0.000377512 12.1079 0.186458 12.1079 0.416523L12.1079 14.5824L9.70066 12.0923C9.54367 11.9299 9.29183 11.9299 9.13483 12.0923C8.97784 12.2547 8.97784 12.5152 9.13483 12.6776L12.2256 15.8748C12.3826 16.0372 12.6344 16.0372 12.7914 15.8748L15.8822 12.6776C15.9607 12.5964 16 12.4915 16 12.3832C16 12.275 15.9607 12.1701 15.8822 12.0889C15.7252 11.9265 15.4734 11.9265 15.3164 12.0889L12.9092 14.579L12.9092 0.409756C12.9092 0.186458 12.7326 0.000377493 12.5102 0.000377502Z" fill="black"/>
<path d="M3.20525 0.122226L0.117743 3.31943C-0.0392486 3.48183 -0.0392485 3.74234 0.117743 3.90474C0.274736 4.06714 0.526577 4.06714 0.683569 3.90474L3.09078 1.41464L3.09078 15.5839C3.09078 15.8139 3.27067 16 3.49307 16C3.71548 16 3.89536 15.8139 3.89536 15.5839L3.89536 1.41464L6.29603 3.90474C6.45303 4.06714 6.70487 4.06714 6.86186 3.90474C6.94036 3.82354 6.9796 3.71866 6.9796 3.6104C6.9796 3.50213 6.94036 3.39725 6.86186 3.31605L3.77108 0.118842C3.61736 -0.0401727 3.36225 -0.0401727 3.20525 0.122226Z" fill="black"/>
</svg>
