<svg width="23" height="23" viewBox="0 0 23 23" fill="none" xmlns="http://www.w3.org/2000/svg">
<path fill-rule="evenodd" clip-rule="evenodd" d="M6.13266 2.87703C2.71449 3.97752 1.18987 7.70917 2.33586 11.2691C2.9174 12.9454 3.86316 14.452 5.10573 15.6882C6.81033 17.3437 8.68301 18.8006 10.6961 20.0385L10.9247 20.1754C11.1437 20.3064 11.4175 20.3041 11.6343 20.1694L11.8477 20.0368C13.858 18.8006 15.7307 17.3437 17.4294 15.6939C18.6779 14.452 19.6236 12.9454 20.2003 11.2836C21.3504 7.71134 19.8195 3.97791 16.4003 2.87708L16.153 2.80342C14.5853 2.37225 12.9194 2.58471 11.515 3.37981L11.2654 3.52778L11.0202 3.38063C9.53895 2.54015 7.76866 2.35078 6.13266 2.87703ZM10.6869 4.77517L10.8701 4.90654C11.1115 5.07945 11.4373 5.07601 11.675 4.89804C12.9132 3.97108 14.5157 3.70133 15.9837 4.17228C18.6329 5.0252 19.8385 7.96534 18.9091 10.8523C18.405 12.3044 17.5706 13.6337 16.4748 14.7238L15.9832 15.1908C14.6588 16.4216 13.2265 17.5358 11.7058 18.5177L11.2703 18.7916L11.4032 18.8754C9.48207 17.694 7.68832 16.2985 6.06103 14.7181C4.97107 13.6337 4.13665 12.3044 3.62769 10.8378C2.7023 7.9626 3.90269 5.02453 6.55047 4.17207C7.94859 3.72234 9.47283 3.94531 10.6869 4.77517ZM14.8716 6.2921C14.5134 6.17777 14.1302 6.37523 14.0158 6.73315C13.9014 7.09107 14.099 7.4739 14.4572 7.58824C15.1613 7.81296 15.6632 8.44666 15.7261 9.19416C15.7576 9.56858 16.0869 9.84658 16.4616 9.81511C16.8364 9.78364 17.1146 9.4546 17.0831 9.08018C16.9742 7.78618 16.1018 6.68476 14.8716 6.2921Z" fill="#0C1A30"/>
</svg>
