<svg width="48" height="48" viewBox="0 0 48 48" fill="none" xmlns="http://www.w3.org/2000/svg">
<circle cx="24" cy="24" r="24" fill="#F8F9FA"/>
<path fill-rule="evenodd" clip-rule="evenodd" d="M17.6059 17.0315C17.3334 17.5663 17.3334 18.2664 17.3334 19.6665V28.2397L19.2917 27.0287L19.3573 26.9881C19.632 26.8175 19.9083 26.6459 20.2196 26.5659C20.4914 26.4959 20.7744 26.4817 21.0518 26.5238C21.3696 26.5722 21.6618 26.715 21.9524 26.8571L22.0217 26.8909L22.462 27.1052C22.9031 27.3199 22.9557 27.3342 22.9909 27.3388C23.0502 27.3466 23.1105 27.3416 23.1677 27.324C23.2016 27.3136 23.2511 27.2908 23.6504 27.0057L25.7384 25.5148L25.816 25.4592C26.1362 25.2295 26.4576 24.999 26.8284 24.9C27.1514 24.8139 27.4903 24.8067 27.8167 24.879C28.1913 24.9621 28.5222 25.1788 28.8519 25.3947L28.9317 25.4469L30.6667 26.5775V22.1665C30.6667 21.9331 30.6667 21.8165 30.6213 21.7273C30.5813 21.6489 30.5176 21.5852 30.4392 21.5453C30.3501 21.4998 30.2334 21.4998 30 21.4998H28.1667C26.3258 21.4998 24.8334 20.0075 24.8334 18.1665V16.3332C24.8334 16.0998 24.8334 15.9831 24.788 15.894C24.748 15.8156 24.6843 15.7519 24.6059 15.7119C24.5167 15.6665 24.4001 15.6665 24.1667 15.6665H21.3334C19.9332 15.6665 19.2332 15.6665 18.6984 15.939C18.228 16.1787 17.8455 16.5611 17.6059 17.0315ZM30.6667 28.5668L28.0218 26.8433C27.5529 26.5377 27.494 26.5146 27.4558 26.5062C27.3905 26.4917 27.3227 26.4931 27.2581 26.5104C27.2202 26.5205 27.1623 26.546 26.7069 26.8712L24.6189 28.3621L24.5512 28.4105C24.2689 28.6129 23.9852 28.8164 23.6573 28.9171C23.3713 29.005 23.0698 29.0303 22.7731 28.9912C22.4331 28.9464 22.1194 28.793 21.8074 28.6404L21.7326 28.6038L21.2923 28.3896C20.8827 28.1902 20.8343 28.1766 20.8013 28.1716C20.7458 28.1631 20.6892 28.166 20.6348 28.18C20.6025 28.1883 20.5558 28.2067 20.1682 28.4463L17.3864 30.1664C17.4249 30.4893 17.4913 30.7433 17.6059 30.9681C17.8455 31.4386 18.228 31.821 18.6984 32.0607C19.2332 32.3332 19.9332 32.3332 21.3334 32.3332H26.6667C28.0668 32.3332 28.7669 32.3332 29.3017 32.0607C29.7721 31.821 30.1545 31.4386 30.3942 30.9681C30.6511 30.464 30.6658 29.8129 30.6667 28.5668ZM24 23.1665C24 24.087 23.2538 24.8332 22.3334 24.8332C21.4129 24.8332 20.6667 24.087 20.6667 23.1665C20.6667 22.246 21.4129 21.4998 22.3334 21.4998C23.2538 21.4998 24 22.246 24 23.1665Z" fill="#999999"/>
<path d="M26.5 16.2558C26.5 15.9303 26.7638 15.6665 27.0893 15.6665C27.2455 15.6665 27.3954 15.7286 27.5059 15.8391L30.4941 18.8272C30.6046 18.9378 30.6667 19.0876 30.6667 19.2439C30.6667 19.5694 30.4028 19.8332 30.0774 19.8332H28.1667C27.2462 19.8332 26.5 19.087 26.5 18.1665V16.2558Z" fill="#999999"/>
</svg>
