<svg width="32" height="32" viewBox="0 0 32 32" fill="none" xmlns="http://www.w3.org/2000/svg">
<rect width="32" height="32" rx="8" fill="#FF511A"/>
<path fill-rule="evenodd" clip-rule="evenodd" d="M7.66667 16C7.66667 11.3976 11.3976 7.66666 16 7.66666C20.6024 7.66666 24.3333 11.3976 24.3333 16C24.3333 20.6024 20.6024 24.3333 16 24.3333C11.3976 24.3333 7.66667 20.6024 7.66667 16ZM15.1667 12.6667C15.1667 12.2064 15.5398 11.8333 16 11.8333C16.4602 11.8333 16.8333 12.2064 16.8333 12.6667C16.8333 13.1269 16.4602 13.5 16 13.5C15.5398 13.5 15.1667 13.1269 15.1667 12.6667ZM16 15.1667C16.4602 15.1667 16.8333 15.5398 16.8333 16V19.3333C16.8333 19.7936 16.4602 20.1667 16 20.1667C15.5398 20.1667 15.1667 19.7936 15.1667 19.3333V16C15.1667 15.5398 15.5398 15.1667 16 15.1667Z" fill="white"/>
</svg>
