<svg width="20" height="20" viewBox="0 0 20 20" fill="none" xmlns="http://www.w3.org/2000/svg">
<path fill-rule="evenodd" clip-rule="evenodd" d="M10 3.33329C6.77834 3.33329 4.16667 5.94496 4.16667 9.16663C4.16667 11.005 5.28006 12.7233 6.83743 14.073L9.70528 16.5585C9.87442 16.705 10.1256 16.705 10.2947 16.5585L13.1626 14.073C14.7199 12.7233 15.8333 11.005 15.8333 9.16663C15.8333 5.94496 13.2217 3.33329 10 3.33329ZM2.5 9.16663C2.5 5.02449 5.85786 1.66663 10 1.66663C14.1421 1.66663 17.5 5.02449 17.5 9.16663C17.5 11.6886 15.9919 13.8264 14.2541 15.3325L11.3863 17.8179C10.5907 18.5074 9.40931 18.5074 8.61373 17.8179L5.74588 15.3325C4.00814 13.8264 2.5 11.6886 2.5 9.16663Z" fill="#999999"/>
<path d="M11.6667 9.16667C11.6667 10.0871 10.9205 10.8333 10 10.8333C9.07954 10.8333 8.33334 10.0871 8.33334 9.16667C8.33334 8.24619 9.07954 7.5 10 7.5C10.9205 7.5 11.6667 8.24619 11.6667 9.16667Z" fill="#999999"/>
</svg>
