<svg width="32" height="32" viewBox="0 0 32 32" fill="none" xmlns="http://www.w3.org/2000/svg">
<rect width="32" height="32" rx="8" fill="#FFBB00"/>
<path fill-rule="evenodd" clip-rule="evenodd" d="M12.8012 13.5H19.1988C19.6381 13.5 20.0171 13.5 20.3292 13.5255C20.6586 13.5524 20.9863 13.6118 21.3016 13.7725C21.772 14.0122 22.1545 14.3946 22.3942 14.865C22.5548 15.1803 22.6143 15.508 22.6412 15.8375C22.6667 16.1496 22.6667 16.5286 22.6667 16.9679V20.8655C22.6667 21.3048 22.6667 21.6837 22.6412 21.9959C22.6143 22.3253 22.5548 22.653 22.3942 22.9683C22.1545 23.4387 21.772 23.8212 21.3016 24.0609C20.9863 24.2215 20.6586 24.2809 20.3292 24.3079C20.017 24.3334 19.6381 24.3334 19.1988 24.3333H12.8012C12.3619 24.3334 11.9829 24.3334 11.6708 24.3079C11.3414 24.2809 11.0137 24.2215 10.6984 24.0609C10.2279 23.8212 9.8455 23.4387 9.60581 22.9683C9.44515 22.653 9.38572 22.3253 9.35881 21.9959C9.3333 21.6837 9.33332 21.3047 9.33333 20.8655V16.9679C9.33332 16.5286 9.3333 16.1496 9.35881 15.8375C9.38572 15.508 9.44515 15.1803 9.60581 14.865C9.8455 14.3946 10.2279 14.0122 10.6984 13.7725C11.0137 13.6118 11.3414 13.5524 11.6708 13.5255C11.9829 13.5 12.3619 13.5 12.8012 13.5ZM16 18.5C15.5398 18.5 15.1667 18.8731 15.1667 19.3333V20.1667C15.1667 20.6269 15.5398 21 16 21C16.4602 21 16.8333 20.6269 16.8333 20.1667V19.3333C16.8333 18.8731 16.4602 18.5 16 18.5Z" fill="white"/>
<path fill-rule="evenodd" clip-rule="evenodd" d="M12.6667 11C12.6667 9.15904 14.1591 7.66666 16 7.66666C17.841 7.66666 19.3333 9.15904 19.3333 11V13.5H17.6667V11C17.6667 10.0795 16.9205 9.33332 16 9.33332C15.0795 9.33332 14.3333 10.0795 14.3333 11V13.5H12.6667V11Z" fill="white"/>
</svg>
