<svg width="32" height="32" viewBox="0 0 32 32" fill="none" xmlns="http://www.w3.org/2000/svg">
<rect width="32" height="32" rx="8" fill="#3864FF"/>
<path d="M14.3333 15.1667V11.9679C14.3333 11.5286 14.3333 11.1496 14.3588 10.8375C14.3857 10.508 14.4452 10.1803 14.6058 9.86503C14.8455 9.39462 15.228 9.01217 15.6984 8.77249C16.0137 8.61182 16.3414 8.55239 16.6708 8.52548C16.9829 8.49997 17.3619 8.49999 17.8012 8.5H20.0321C20.4714 8.49999 20.8504 8.49997 21.1625 8.52548C21.492 8.55239 21.8197 8.61182 22.135 8.77249C22.6054 9.01217 22.9878 9.39462 23.2275 9.86503C23.3882 10.1803 23.4476 10.508 23.4745 10.8375C23.5 11.1496 23.5 11.5286 23.5 11.9679V20.0321C23.5 20.4714 23.5 20.8504 23.4745 21.1625C23.4476 21.492 23.3882 21.8197 23.2275 22.135C22.9878 22.6054 22.6054 22.9878 22.135 23.2275C21.8197 23.3882 21.492 23.4476 21.1625 23.4745C20.8504 23.5 20.4714 23.5 20.0321 23.5H17.8012C17.3619 23.5 16.983 23.5 16.6708 23.4745C16.3414 23.4476 16.0137 23.3882 15.6984 23.2275C15.2279 22.9878 14.8455 22.6054 14.6058 22.135C14.4452 21.8197 14.3857 21.492 14.3588 21.1625C14.3333 20.8504 14.3333 20.4714 14.3333 20.0321V16.8333H19.3333C19.7936 16.8333 20.1667 16.4602 20.1667 16C20.1667 15.5398 19.7936 15.1667 19.3333 15.1667H14.3333Z" fill="white"/>
<path d="M12.4226 17.9107C12.748 18.2362 12.748 18.7638 12.4226 19.0892C12.0972 19.4147 11.5695 19.4147 11.2441 19.0892L8.74408 16.5892C8.41864 16.2638 8.41864 15.7362 8.74408 15.4107L11.2441 12.9107C11.5695 12.5853 12.0972 12.5853 12.4226 12.9107C12.748 13.2362 12.748 13.7638 12.4226 14.0892L11.3452 15.1667H14.3333V16.8333H11.3452L12.4226 17.9107Z" fill="white"/>
</svg>
