<svg width="120" height="112" viewBox="0 0 120 112" fill="none" xmlns="http://www.w3.org/2000/svg">
<path d="M112.408 62.6086C112.408 80.6956 102.651 96.5962 88.1144 105.143C88.1144 105.143 88.0149 105.242 87.9153 105.242C86.9196 105.838 85.924 106.335 84.9284 106.832C84.4305 107.13 83.9327 107.329 83.4349 107.528C83.2358 107.627 83.0366 107.727 82.8375 107.826H82.7379C82.5388 107.925 82.2401 108.025 82.041 108.124C80.5475 108.82 78.9545 109.317 77.3615 109.814C77.1623 109.913 76.8636 110.012 76.6645 110.012C76.565 110.012 76.4654 110.112 76.3658 110.112C76.2663 110.112 76.1667 110.112 76.1667 110.211C76.0671 110.211 75.9676 110.211 75.868 110.31C73.7772 110.907 71.5867 111.304 69.2968 111.602C67.2059 111.901 65.1151 112 63.0242 112C59.639 112 56.3534 111.702 53.1673 111.006C52.9682 111.006 52.7691 110.907 52.57 110.907C51.873 110.807 51.176 110.609 50.4791 110.41C49.7821 110.211 49.0852 110.012 48.3882 109.814C45.6004 108.919 42.8126 107.826 40.224 106.534C24.2937 98.2856 13.4412 81.6893 13.4412 62.6086C13.4412 35.2794 35.644 13.2173 62.9246 13.2173C90.3048 13.2173 112.408 35.2794 112.408 62.6086Z" fill="#EAEEF9"/>
<path d="M58.6435 40.1491C53.8644 36.2733 51.3753 29.8137 52.2713 23.7516C53.267 16.8944 58.1456 15.6025 60.6347 16.6957C62.4269 17.4907 63.5221 19.8758 62.5265 21.6646C60.8339 24.8447 54.3622 23.5528 53.0679 18.087C52.57 16.0994 53.0679 13.9131 54.2626 12.2236C56.2539 9.54038 59.9378 8.54659 63.2234 8.0497C64.0199 8.0497 64.8164 7.95032 65.5134 7.85094C67.3056 7.65218 69.496 7.35404 71.786 7.05591" stroke="#D5DAE8" stroke-miterlimit="10" stroke-linecap="round" stroke-linejoin="round"/>
<path d="M76.7642 8.24834L73.6777 9.63964L74.1756 4.37256" fill="#D5DAE8"/>
<path d="M96.5774 1.78882L95.1835 2.58385L79.0541 11.6273L74.8724 5.46584L74.1754 4.37267L71.1885 0L93.9887 1.59006L96.5774 1.78882Z" fill="#EAEEF9"/>
<path d="M96.5773 1.78885L95.1834 2.58388L74.8722 5.46586L74.1753 4.3727L93.9886 1.59009L96.5773 1.78885Z" fill="#D5DAE8"/>
<path d="M15.2016 33.6602C16.5089 33.236 17.2243 31.8344 16.7993 30.5295C16.3744 29.2246 14.9701 28.5106 13.6628 28.9347C12.3555 29.3588 11.6401 30.7605 12.065 32.0654C12.49 33.3703 13.8942 34.0843 15.2016 33.6602Z" fill="#EAEEF9"/>
<path d="M20.635 25.554C21.524 25.2656 22.0105 24.3125 21.7215 23.4252C21.4326 22.5378 20.4777 22.0523 19.5887 22.3407C18.6997 22.6291 18.2132 23.5822 18.5022 24.4696C18.7911 25.3569 19.7461 25.8424 20.635 25.554Z" fill="#EAEEF9"/>
<path d="M41.086 13.8846C42.6285 12.4776 42.7363 10.0889 41.3267 8.54931C39.9171 7.00968 37.5239 6.90215 35.9814 8.30913C34.4389 9.71611 34.3312 12.1048 35.7408 13.6444C37.1504 15.1841 39.5435 15.2916 41.086 13.8846Z" fill="#EAEEF9"/>
<path d="M118.824 33.2606C119.474 32.6682 119.519 31.6624 118.925 31.0142C118.332 30.3659 117.324 30.3206 116.675 30.9131C116.025 31.5055 115.98 32.5112 116.573 33.1595C117.167 33.8078 118.175 33.8531 118.824 33.2606Z" fill="#EAEEF9"/>
<path d="M77.8593 82.7827V110.112C77.6602 110.211 77.4611 110.211 77.2619 110.311C74.972 110.907 72.5824 111.404 70.1929 111.702V82.7827H77.8593Z" fill="#4988FD"/>
<path d="M77.8593 82.7827V110.112C77.6602 110.211 77.4611 110.211 77.2619 110.311C74.972 110.907 72.5824 111.404 70.1929 111.702V82.7827H77.8593Z" fill="white"/>
<path d="M84.9285 82.7827V106.932C84.4306 107.23 83.9328 107.429 83.435 107.627C83.2359 107.727 83.0367 107.826 82.8376 107.926H82.738C82.5389 108.025 82.2402 108.124 82.0411 108.224C80.5476 108.919 78.9546 109.416 77.3616 109.913V82.7827H84.9285Z" fill="#2767F4"/>
<path d="M84.9285 82.7827V106.932C84.4306 107.23 83.9328 107.429 83.435 107.627C83.2359 107.727 83.0367 107.826 82.8376 107.926H82.738C82.5389 108.025 82.2402 108.124 82.0411 108.224C80.5476 108.919 78.9546 109.416 77.3616 109.913V82.7827H84.9285Z" fill="#D5DAE8"/>
<path opacity="0.1" d="M84.9285 93.2173V105.242C84.5302 105.441 84.1319 105.64 83.7337 105.838C83.5346 105.938 83.3354 106.037 83.1363 106.137H83.0367C82.8376 106.236 82.5389 106.335 82.3398 106.435C80.8463 107.13 79.2533 107.627 77.6603 108.124C77.5607 108.124 77.4611 108.223 77.3616 108.223V105.64C77.4611 105.342 77.5607 105.043 77.6603 104.745C79.1537 100.869 81.0455 97.7887 83.2359 95.2049C83.7337 94.5092 84.3311 93.8136 84.9285 93.2173Z" fill="#062C78"/>
<path opacity="0.1" d="M84.9284 82.7827H70.1929V91.3293H84.9284V82.7827Z" fill="#062C78"/>
<path d="M116.192 52.5715V83.1802H92.2962V83.2795H44.4058V28.323H89.9067C90.5041 28.2236 91.1014 28.2236 91.7984 28.2236C92.5949 28.2236 93.2919 28.2236 94.0884 28.323C95.084 28.4224 95.9801 28.5218 96.8762 28.7205C101.556 29.7143 105.737 32.0994 109.023 35.2795C113.503 39.7516 116.192 45.9131 116.192 52.5715Z" fill="url(#paint0_linear_365_2619)"/>
<path d="M96.8762 28.8199V51.5777C96.8762 52.3727 96.2788 52.969 95.4823 52.969C94.6858 52.969 94.0884 52.3727 94.0884 51.5777V28.323C94.9845 28.4224 95.9801 28.6211 96.8762 28.8199Z" fill="url(#paint1_linear_365_2619)"/>
<path d="M95.9802 59.7266C99.0045 59.7266 101.456 57.2795 101.456 54.2608C101.456 51.2421 99.0045 48.7949 95.9802 48.7949C92.9559 48.7949 90.5042 51.2421 90.5042 54.2608C90.5042 57.2795 92.9559 59.7266 95.9802 59.7266Z" fill="#5C71FF"/>
<path d="M96.8761 59.031C100.01 59.031 102.551 56.5839 102.551 53.5652C102.551 50.5465 100.01 48.0994 96.8761 48.0994C93.7418 48.0994 91.2009 50.5465 91.2009 53.5652C91.2009 56.5839 93.7418 59.031 96.8761 59.031Z" fill="#D5DAE8"/>
<path d="M97.1748 59.031C100.199 59.031 102.651 56.5839 102.651 53.5652C102.651 50.5465 100.199 48.0994 97.1748 48.0994C94.1504 48.0994 91.6987 50.5465 91.6987 53.5652C91.6987 56.5839 94.1504 59.031 97.1748 59.031Z" fill="#EAEEF9"/>
<path d="M97.1748 55.6522C98.3296 55.6522 99.2657 54.7178 99.2657 53.5652C99.2657 52.4126 98.3296 51.4783 97.1748 51.4783C96.0201 51.4783 95.084 52.4126 95.084 53.5652C95.084 54.7178 96.0201 55.6522 97.1748 55.6522Z" fill="#D5DAE8"/>
<path d="M68.2016 50.1864V83.2795H19.415V50.1864C19.415 39.7516 26.7828 31.0062 36.5401 28.8199C38.1331 28.4224 39.7262 28.323 41.4188 28.323H46.397C57.3491 28.323 66.4094 36.2733 68.102 46.8075C68.102 47.8013 68.2016 48.9938 68.2016 50.1864Z" fill="url(#paint2_linear_365_2619)"/>
<path d="M98.7678 27.031V53.3664C98.7678 54.1614 98.1704 54.7577 97.3739 54.7577C96.5774 54.7577 95.98 54.1614 95.98 53.3664V27.031H98.7678Z" fill="white"/>
<path d="M60.4357 69.2673C60.4357 71.3543 58.7431 73.0437 56.6522 73.0437C17.623 73.0437 20.1121 73.2425 18.8178 72.4475C17.7226 71.7518 17.0256 70.5593 17.0256 69.2673C19.3156 43.3295 18.9174 43.6276 20.5104 42.1369C22.0039 40.845 19.913 41.2425 58.7431 41.2425C59.9379 41.2425 61.0331 41.8388 61.73 42.6338C63.0244 44.3233 62.7257 43.727 60.4357 69.2673Z" fill="white"/>
<path d="M62.1283 43.2299C42.4145 59.9256 42.9124 60.2237 40.025 60.2237C36.9385 60.2237 37.2372 59.8262 19.7139 43.2299C21.2073 40.4473 20.3113 41.2423 58.8427 41.2423C60.2366 41.2423 61.5309 42.0374 62.1283 43.2299Z" fill="#EAEEF9"/>
<path d="M14.636 48.6956H1.69262C1.09523 48.6956 0.597412 48.1987 0.597412 47.6024C0.597412 47.0062 1.09523 46.5093 1.69262 46.5093H14.636C15.2334 46.5093 15.7312 47.0062 15.7312 47.6024C15.7312 48.1987 15.2334 48.6956 14.636 48.6956Z" fill="url(#paint3_linear_365_2619)"/>
<path d="M14.0386 54.8572H6.57128C5.9739 54.8572 5.47607 54.3603 5.47607 53.7641C5.47607 53.1678 5.9739 52.6709 6.57128 52.6709H14.0386C14.636 52.6709 15.1338 53.1678 15.1338 53.7641C15.1338 54.3603 14.636 54.8572 14.0386 54.8572Z" fill="url(#paint4_linear_365_2619)"/>
<path d="M13.3416 60.7205H9.15991C8.56252 60.7205 8.0647 60.2236 8.0647 59.6273C8.0647 59.0311 8.56252 58.5342 9.15991 58.5342H13.4412C14.0386 58.5342 14.5364 59.0311 14.5364 59.6273C14.5364 60.2236 14.0386 60.7205 13.3416 60.7205Z" fill="url(#paint5_linear_365_2619)"/>
<path d="M54.7604 60.4224H50.28C49.9813 60.4224 49.7822 60.6211 49.7822 60.9193L49.6826 61.5155L49.4835 63.1056L49.3839 64.1988L49.1848 65.3913C49.1848 65.4907 49.1848 65.5901 49.1848 65.6894C49.2844 65.8882 49.4835 66.087 49.6826 66.087H54.163C54.4617 66.087 54.6609 65.8882 54.6609 65.5901L55.2582 61.118C55.3578 60.7205 55.1587 60.4224 54.7604 60.4224ZM53.6652 64.4969C53.6652 64.5963 53.5656 64.795 53.3665 64.795H51.1761H50.8774C50.6783 64.795 50.5787 64.5963 50.5787 64.4969L50.6783 63.7019L50.7778 62.6087L50.8774 62.1118C50.8774 62.0124 50.977 61.8137 51.1761 61.8137H53.6652C53.8643 61.8137 53.9639 62.0124 53.9639 62.1118L53.6652 64.4969Z" fill="url(#paint6_linear_365_2619)"/>
<path d="M51.176 61.7144C50.9769 61.7144 50.8773 61.8138 50.8773 62.0126L50.7778 62.5095C50.2799 62.8076 49.8817 63.0064 49.4834 63.1057C49.1847 63.2051 48.886 63.2051 48.5873 63.2051C47.6913 63.2051 46.9943 62.907 46.3969 62.6088C45.5009 62.2113 45.3017 62.2113 45.003 62.5095C44.7043 62.8076 44.3061 62.8076 44.0074 62.6088C43.7087 62.3107 43.7087 61.9132 43.9078 61.6151C44.9035 60.4225 46.0982 60.9194 46.9943 61.3169C47.8904 61.7144 48.5873 62.1119 49.6826 61.5157C49.7821 61.4163 49.9812 61.4163 50.0808 61.3169C50.3795 61.1182 50.8773 61.2175 51.0765 61.5157C51.176 61.5157 51.176 61.615 51.176 61.7144Z" fill="url(#paint7_linear_365_2619)"/>
<path d="M51.1761 64.6957L51.0765 64.7951C50.3796 65.292 49.7822 65.4907 49.2844 65.5901C49.0853 65.5901 48.8861 65.5901 48.7866 65.5901C47.8905 65.5901 47.1935 65.292 46.5962 64.9939C45.7001 64.5963 45.5009 64.5963 45.2022 64.8945C44.9036 65.1926 44.5053 65.1926 44.2066 64.9939C43.9079 64.6957 43.9079 64.2982 44.107 64.0001C45.1027 62.8075 46.2975 63.3044 47.094 63.7019C47.7909 64.0001 48.4879 64.2982 49.2844 64.0994C49.5831 64.0001 49.7822 63.9007 50.1805 63.7019C50.28 63.6025 50.4792 63.6025 50.6783 63.6025L50.5787 64.3976C50.5787 64.5963 50.6783 64.6957 50.8774 64.6957H51.1761Z" fill="url(#paint8_linear_365_2619)"/>
<path opacity="0.5" d="M68.2016 54.7578L67.9029 46.7081C66.2103 36.2733 57.15 28.2236 46.1979 28.2236H41.2197C39.5271 28.2236 37.9341 28.4224 36.341 28.7205L35.7437 29.2174L48.0896 79.9007L68.1021 80.9938V54.7578H68.2016Z" fill="url(#paint9_linear_365_2619)"/>
<path d="M112.209 26.1366C112.607 26.4347 112.408 27.1304 111.811 27.1304H98.8675H95.8806V16.2981H111.811C112.309 16.2981 112.607 16.8944 112.209 17.2919L108.027 20.7701C107.43 21.267 107.43 22.1615 108.027 22.6583L112.209 26.1366Z" fill="url(#paint10_linear_365_2619)"/>
<path d="M56.7518 101.963C55.3579 104.05 53.6653 107.429 52.6697 110.311C52.5701 110.509 52.4705 110.808 52.4705 111.006C51.7736 110.907 51.0766 110.708 50.3797 110.509C49.7823 109.118 49.384 107.627 49.384 107.627C49.7823 107.131 50.081 106.733 50.4792 106.336C52.371 103.95 54.3623 102.36 56.7518 101.963Z" fill="#B6BED6"/>
<path d="M53.068 111.106C52.8688 111.106 52.6697 111.006 52.4706 111.006C51.7736 110.907 51.0767 110.708 50.3797 110.509C49.8819 110.41 49.4836 110.211 48.9858 110.112C48.7867 110.013 48.5876 110.013 48.3884 109.913C48.1893 109.814 47.9902 109.814 47.6915 109.714C45.1028 108.919 42.6137 107.826 40.2242 106.634C37.7351 102.46 36.3412 97.292 33.9516 90.2361C33.9516 90.1367 33.9516 90.1367 33.8521 90.0374C33.8521 90.0374 34.0512 90.0374 34.549 90.2361C34.8477 90.4349 35.3455 90.6336 35.9429 91.0311C37.1377 91.8262 39.0294 93.2175 41.8172 95.5032C45.302 98.3852 48.2889 102.658 50.3797 106.236C51.2758 107.826 52.0723 109.217 52.6697 110.311C52.8688 110.509 52.9684 110.808 53.068 111.106Z" fill="#D5DAE8"/>
<path d="M48.9858 110.013C48.7867 109.913 48.5876 109.913 48.3884 109.814C48.1893 109.714 47.9902 109.714 47.6915 109.615C43.1115 100.373 37.9342 94.5094 34.8477 91.1305C34.549 90.733 34.2503 90.4349 33.9516 90.1367C33.9516 90.0374 33.9516 90.0374 33.8521 89.938C33.8521 89.938 34.0512 89.938 34.549 90.1367C34.8477 90.3355 35.3455 90.5343 35.9429 90.9318C39.129 94.5094 44.4059 100.572 48.9858 110.013Z" fill="#EAEEF9"/>
<path d="M77.8593 110.112C77.9588 110.112 77.9589 110.112 78.0584 110.112C77.9589 110.112 77.7597 110.211 77.6602 110.211C77.6602 110.112 77.7597 110.112 77.8593 110.112Z" fill="#D5DAE8"/>
<path d="M78.1581 110.013C78.2577 110.013 78.2577 110.013 78.3572 109.913C78.2577 109.913 78.0585 110.013 77.959 110.013C78.0585 110.013 78.0586 110.013 78.1581 110.013Z" fill="#D5DAE8"/>
<path d="M95.5818 88.2485C95.5818 88.2485 95.4822 88.4473 95.2831 88.8448C94.0883 91.0311 90.0062 98.5839 88.1145 105.044C88.1145 105.044 88.0149 105.143 87.9153 105.143C86.9197 105.739 85.924 106.236 84.9284 106.733C84.4306 107.031 83.9328 107.23 83.4349 107.429C83.2358 107.528 83.0367 107.627 82.8376 107.727H82.738C82.5389 107.826 82.2402 107.926 82.041 108.025C80.5476 108.721 78.9545 109.217 77.3615 109.714C77.1624 109.814 76.8637 109.913 76.6646 109.913C76.565 109.913 76.4654 110.013 76.3659 110.013C76.2663 110.013 76.1667 110.013 76.1667 110.112C76.565 108.82 76.9633 107.528 77.4611 106.435C78.9545 102.559 80.8463 99.4783 83.0367 96.8945C83.7336 96.0995 84.4306 95.3044 85.1275 94.6088C88.0149 91.7268 91.1014 89.8386 93.9888 88.8448C94.387 88.646 94.9844 88.4473 95.5818 88.2485Z" fill="#D5DAE8"/>
<path d="M95.5818 88.2485C95.5818 88.2485 95.4822 88.4473 95.2831 88.8448C91.4996 92.1243 88.0149 97.292 84.9284 103.95C84.4306 105.143 83.9327 106.236 83.4349 107.528C83.2358 107.627 83.0367 107.727 82.8375 107.826H82.738C82.5388 107.926 82.2401 108.025 82.041 108.124C82.1406 107.926 82.2401 107.826 82.2401 107.826C83.1362 105.64 84.0323 103.553 84.9284 101.665C87.6166 96.1988 90.6035 91.8262 93.7896 88.8448C94.387 88.646 94.9844 88.4473 95.5818 88.2485Z" fill="#EAEEF9"/>
<path d="M81.8418 110.211C81.6427 110.708 81.5431 111.205 81.344 111.702" stroke="white" stroke-miterlimit="10"/>
<path d="M68.2016 46.7081C66.509 36.2733 57.2495 28.2236 46.2974 28.2236H41.3192C39.6266 28.2236 38.0336 28.4224 36.4405 28.7205C29.471 30.3106 23.7959 35.1802 21.0081 41.5404C21.3068 41.3416 21.8046 41.2423 22.8002 41.1429C25.4885 35.6771 30.5662 31.5031 36.7392 30.1118C38.1331 29.8137 39.7262 29.6149 41.2196 29.6149H46.1978C56.3534 29.6149 64.8164 36.8696 66.4094 46.8075C66.6085 47.8013 66.7081 48.8944 66.7081 49.9876V81.5901H20.9085V72.8448C20.112 72.8448 19.7137 72.7454 19.415 72.646V83.0808H68.5003V50.1864C68.5003 48.9938 68.4007 47.8013 68.2016 46.7081Z" fill="#96A7FF"/>
<path d="M68.5003 79.8013V83.2795H1.79216C0.796515 83.2795 0 82.4845 0 81.5901C0 80.5963 0.796515 79.8013 1.79216 79.8013H68.5003Z" fill="#7894FF"/>
<defs>
<linearGradient id="paint0_linear_365_2619" x1="44.4131" y1="55.7831" x2="116.209" y2="55.7831" gradientUnits="userSpaceOnUse">
<stop stop-color="#83A6FF"/>
<stop offset="1" stop-color="#5A78FF"/>
</linearGradient>
<linearGradient id="paint1_linear_365_2619" x1="95.4747" y1="49.5517" x2="95.4747" y2="36.3739" gradientUnits="userSpaceOnUse">
<stop stop-color="#4F6AFF"/>
<stop offset="1" stop-color="#657EFF" stop-opacity="0"/>
</linearGradient>
<linearGradient id="paint2_linear_365_2619" x1="19.3826" y1="55.7483" x2="68.2189" y2="55.7483" gradientUnits="userSpaceOnUse">
<stop stop-color="#627AFF"/>
<stop offset="1" stop-color="#273DD1"/>
</linearGradient>
<linearGradient id="paint3_linear_365_2619" x1="0.599304" y1="47.5665" x2="15.7179" y2="47.5665" gradientUnits="userSpaceOnUse">
<stop stop-color="#FF66A9"/>
<stop offset="1" stop-color="#F53689"/>
</linearGradient>
<linearGradient id="paint4_linear_365_2619" x1="5.44172" y1="53.7628" x2="15.1562" y2="53.7628" gradientUnits="userSpaceOnUse">
<stop stop-color="#FF66A9"/>
<stop offset="1" stop-color="#F53689"/>
</linearGradient>
<linearGradient id="paint5_linear_365_2619" x1="8.03732" y1="59.6318" x2="14.4896" y2="59.6318" gradientUnits="userSpaceOnUse">
<stop stop-color="#FF66A9"/>
<stop offset="1" stop-color="#F53689"/>
</linearGradient>
<linearGradient id="paint6_linear_365_2619" x1="49.1791" y1="63.1925" x2="55.3366" y2="63.1925" gradientUnits="userSpaceOnUse">
<stop stop-color="#FF66A9"/>
<stop offset="1" stop-color="#F53689"/>
</linearGradient>
<linearGradient id="paint7_linear_365_2619" x1="43.8053" y1="62.035" x2="51.212" y2="62.035" gradientUnits="userSpaceOnUse">
<stop stop-color="#FF66A9"/>
<stop offset="1" stop-color="#F53689"/>
</linearGradient>
<linearGradient id="paint8_linear_365_2619" x1="43.9036" y1="64.506" x2="51.1752" y2="64.506" gradientUnits="userSpaceOnUse">
<stop stop-color="#FF66A9"/>
<stop offset="1" stop-color="#F53689"/>
</linearGradient>
<linearGradient id="paint9_linear_365_2619" x1="66.9675" y1="54.0667" x2="46.3613" y2="55.0269" gradientUnits="userSpaceOnUse">
<stop stop-color="#0C1E82"/>
<stop offset="1" stop-color="#001DB5" stop-opacity="0"/>
</linearGradient>
<linearGradient id="paint10_linear_365_2619" x1="95.9872" y1="21.6689" x2="112.445" y2="21.6689" gradientUnits="userSpaceOnUse">
<stop stop-color="#FF66A9"/>
<stop offset="1" stop-color="#F53689"/>
</linearGradient>
</defs>
</svg>
