<svg width="32" height="32" viewBox="0 0 32 32" fill="none" xmlns="http://www.w3.org/2000/svg">
<rect width="32" height="32" rx="8" fill="#5770FF"/>
<path d="M14.8407 8.44836C15.2616 7.40523 16.7384 7.40523 17.1592 8.44836L18.7736 12.4501C18.8326 12.5963 18.969 12.6967 19.1261 12.7095L23.1812 13.0404C24.2807 13.1301 24.7335 14.4963 23.9051 15.2249L20.828 17.9313C20.7141 18.0314 20.6637 18.1856 20.6963 18.3337L21.6802 22.8062C21.926 23.9235 20.6663 24.7566 19.7344 24.0931L16.2416 21.6062C16.097 21.5032 15.903 21.5032 15.7583 21.6062L12.2655 24.0931C11.3336 24.7566 10.0739 23.9235 10.3197 22.8062L11.3037 18.3337C11.3363 18.1856 11.2858 18.0314 11.1719 17.9313L8.09471 15.2249C7.26633 14.4963 7.71904 13.1301 8.81857 13.0404L12.8738 12.7095C13.0309 12.6967 13.1674 12.5963 13.2264 12.4501L14.8407 8.44836Z" fill="white"/>
</svg>
