<svg width="32" height="32" viewBox="0 0 32 32" fill="none" xmlns="http://www.w3.org/2000/svg">
<rect width="32" height="32" rx="8" fill="#5770FF"/>
<path fill-rule="evenodd" clip-rule="evenodd" d="M12.8014 13.5H19.199C19.6382 13.5 20.0172 13.5 20.3294 13.5255C20.6588 13.5524 20.9865 13.6118 21.3018 13.7725C21.7722 14.0122 22.1547 14.3946 22.3944 14.865C22.555 15.1803 22.6144 15.508 22.6414 15.8375C22.6669 16.1496 22.6668 16.5286 22.6668 16.9679V20.8655C22.6668 21.3048 22.6669 21.6837 22.6414 21.9959C22.6144 22.3253 22.555 22.653 22.3944 22.9683C22.1547 23.4387 21.7722 23.8212 21.3018 24.0609C20.9865 24.2215 20.6588 24.2809 20.3294 24.3079C20.0172 24.3334 19.6382 24.3334 19.1989 24.3333H12.8014C12.3621 24.3334 11.9831 24.3334 11.671 24.3079C11.3415 24.2809 11.0138 24.2215 10.6985 24.0609C10.2281 23.8212 9.84567 23.4387 9.60598 22.9683C9.44532 22.653 9.38589 22.3253 9.35897 21.9959C9.33347 21.6837 9.33348 21.3047 9.3335 20.8655V16.9679C9.33348 16.5286 9.33347 16.1496 9.35897 15.8375C9.38589 15.508 9.44532 15.1803 9.60598 14.865C9.84567 14.3946 10.2281 14.0122 10.6985 13.7725C11.0138 13.6118 11.3415 13.5524 11.671 13.5255C11.9831 13.5 12.3621 13.5 12.8014 13.5ZM16.0002 18.5C15.5399 18.5 15.1668 18.8731 15.1668 19.3333V20.1667C15.1668 20.6269 15.5399 21 16.0002 21C16.4604 21 16.8335 20.6269 16.8335 20.1667V19.3333C16.8335 18.8731 16.4604 18.5 16.0002 18.5Z" fill="white"/>
<path fill-rule="evenodd" clip-rule="evenodd" d="M12.6665 11.0003C12.6665 9.15938 14.1589 7.66699 15.9998 7.66699C17.8408 7.66699 19.3332 9.15938 19.3332 11.0003V13.5003H17.6665V11.0003C17.6665 10.0799 16.9203 9.33366 15.9998 9.33366C15.0794 9.33366 14.3332 10.0799 14.3332 11.0003V13.5003H12.6665V11.0003Z" fill="white"/>
</svg>
