<svg width="32" height="32" viewBox="0 0 32 32" fill="none" xmlns="http://www.w3.org/2000/svg">
<rect width="32" height="32" rx="8" fill="#FF511A"/>
<path d="M8.5 18.0832C8.5 21.0747 10.9251 23.4998 13.9167 23.4998C16.9082 23.4998 19.3333 21.0747 19.3333 18.0832C19.3333 15.0916 16.9082 12.6665 13.9167 12.6665C10.9251 12.6665 8.5 15.0916 8.5 18.0832Z" fill="white"/>
<path d="M13.7415 10.6774C13.64 10.8132 13.747 11 13.9166 11C17.8286 11 21 14.1713 21 18.0833C21 18.2529 21.1867 18.36 21.3226 18.2584C22.6443 17.2707 23.5 15.6936 23.5 13.9167C23.5 10.9251 21.0748 8.5 18.0833 8.5C16.3063 8.5 14.7292 9.35565 13.7415 10.6774Z" fill="white"/>
</svg>
