<svg width="32" height="32" viewBox="0 0 32 32" fill="none" xmlns="http://www.w3.org/2000/svg">
<rect width="32" height="32" rx="8" fill="#FF511A"/>
<path fill-rule="evenodd" clip-rule="evenodd" d="M12.8013 13.5H19.1988C19.6381 13.5 20.0171 13.5 20.3292 13.5255C20.6587 13.5524 20.9864 13.6118 21.3017 13.7725C21.7721 14.0122 22.1545 14.3946 22.3942 14.865C22.5549 15.1803 22.6143 15.508 22.6412 15.8375C22.6667 16.1496 22.6667 16.5286 22.6667 16.9679V20.8655C22.6667 21.3048 22.6667 21.6837 22.6412 21.9959C22.6143 22.3253 22.5549 22.653 22.3942 22.9683C22.1545 23.4387 21.7721 23.8212 21.3017 24.0609C20.9864 24.2215 20.6587 24.2809 20.3292 24.3079C20.0171 24.3334 19.6381 24.3334 19.1988 24.3333H12.8013C12.362 24.3334 11.983 24.3334 11.6709 24.3079C11.3414 24.2809 11.0137 24.2215 10.6984 24.0609C10.228 23.8212 9.84554 23.4387 9.60586 22.9683C9.4452 22.653 9.38577 22.3253 9.35885 21.9959C9.33335 21.6837 9.33336 21.3047 9.33337 20.8655V16.9679C9.33336 16.5286 9.33335 16.1496 9.35885 15.8375C9.38577 15.508 9.4452 15.1803 9.60586 14.865C9.84554 14.3946 10.228 14.0122 10.6984 13.7725C11.0137 13.6118 11.3414 13.5524 11.6709 13.5255C11.983 13.5 12.362 13.5 12.8013 13.5ZM16 18.5C15.5398 18.5 15.1667 18.8731 15.1667 19.3333V20.1667C15.1667 20.6269 15.5398 21 16 21C16.4603 21 16.8334 20.6269 16.8334 20.1667V19.3333C16.8334 18.8731 16.4603 18.5 16 18.5Z" fill="white"/>
<path fill-rule="evenodd" clip-rule="evenodd" d="M12.6666 10.9998C12.6666 9.15889 14.159 7.6665 16 7.6665C17.8409 7.6665 19.3333 9.15889 19.3333 10.9998V13.4998H17.6666V10.9998C17.6666 10.0794 16.9204 9.33317 16 9.33317C15.0795 9.33317 14.3333 10.0794 14.3333 10.9998V13.4998H12.6666V10.9998Z" fill="white"/>
</svg>
