<svg width="32" height="32" viewBox="0 0 32 32" fill="none" xmlns="http://www.w3.org/2000/svg">
<rect width="32" height="32" rx="8" fill="#FF511A"/>
<path fill-rule="evenodd" clip-rule="evenodd" d="M8.5 15.1665C8.5 11.0244 11.8579 7.6665 16 7.6665C20.1421 7.6665 23.5 11.0244 23.5 15.1665C23.5 17.6885 21.9919 19.8263 20.2541 21.3323L17.3863 23.8178C16.5907 24.5073 15.4093 24.5073 14.6137 23.8178L11.7459 21.3323C10.0081 19.8263 8.5 17.6885 8.5 15.1665ZM16 16.8332C16.9205 16.8332 17.6667 16.087 17.6667 15.1665C17.6667 14.246 16.9205 13.4998 16 13.4998C15.0795 13.4998 14.3333 14.246 14.3333 15.1665C14.3333 16.087 15.0795 16.8332 16 16.8332Z" fill="white"/>
</svg>
