<svg width="32" height="32" viewBox="0 0 32 32" fill="none" xmlns="http://www.w3.org/2000/svg">
<rect width="32" height="32" rx="8" fill="#333333"/>
<path d="M14.3335 15.1667V11.9679C14.3335 11.5286 14.3335 11.1496 14.359 10.8375C14.3859 10.508 14.4453 10.1803 14.606 9.86503C14.8457 9.39462 15.2281 9.01217 15.6985 8.77249C16.0138 8.61182 16.3415 8.55239 16.671 8.52548C16.9831 8.49997 17.3621 8.49999 17.8013 8.5H20.0323C20.4716 8.49999 20.8506 8.49997 21.1627 8.52548C21.4921 8.55239 21.8198 8.61182 22.1351 8.77249C22.6055 9.01217 22.988 9.39462 23.2277 9.86503C23.3883 10.1803 23.4478 10.508 23.4747 10.8375C23.5002 11.1496 23.5002 11.5286 23.5002 11.9679V20.0321C23.5002 20.4714 23.5002 20.8504 23.4747 21.1625C23.4478 21.492 23.3883 21.8197 23.2277 22.135C22.988 22.6054 22.6055 22.9878 22.1351 23.2275C21.8198 23.3882 21.4921 23.4476 21.1627 23.4745C20.8505 23.5 20.4716 23.5 20.0323 23.5H17.8014C17.3621 23.5 16.9831 23.5 16.671 23.4745C16.3415 23.4476 16.0138 23.3882 15.6985 23.2275C15.2281 22.9878 14.8457 22.6054 14.606 22.135C14.4453 21.8197 14.3859 21.492 14.359 21.1625C14.3335 20.8504 14.3335 20.4714 14.3335 20.0321V16.8333H19.3335C19.7937 16.8333 20.1668 16.4602 20.1668 16C20.1668 15.5398 19.7937 15.1667 19.3335 15.1667H14.3335Z" fill="white"/>
<path d="M12.4226 17.9111C12.748 18.2365 12.748 18.7641 12.4226 19.0896C12.0972 19.415 11.5695 19.415 11.2441 19.0896L8.74408 16.5896C8.41864 16.2641 8.41864 15.7365 8.74408 15.4111L11.2441 12.9111C11.5695 12.5856 12.0972 12.5856 12.4226 12.9111C12.748 13.2365 12.748 13.7641 12.4226 14.0896L11.3452 15.167H14.3333V16.8337H11.3452L12.4226 17.9111Z" fill="white"/>
</svg>
