<svg width="32" height="32" viewBox="0 0 32 32" fill="none" xmlns="http://www.w3.org/2000/svg">
<rect width="32" height="32" rx="8" fill="#FF511A"/>
<path d="M14.8409 8.44836C15.2617 7.40523 16.7385 7.40523 17.1593 8.44836L18.7737 12.4501C18.8327 12.5963 18.9691 12.6967 19.1262 12.7095L23.1814 13.0404C24.2809 13.1301 24.7336 14.4963 23.9052 15.2249L20.8281 17.9313C20.7143 18.0314 20.6638 18.1856 20.6964 18.3337L21.6804 22.8062C21.9262 23.9235 20.6664 24.7566 19.7345 24.0931L16.2418 21.6062C16.0971 21.5032 15.9031 21.5032 15.7584 21.6062L12.2656 24.0931C11.3338 24.7566 10.074 23.9235 10.3198 22.8062L11.3038 18.3337C11.3364 18.1856 11.2859 18.0314 11.172 17.9313L8.09483 15.2249C7.26645 14.4963 7.71917 13.1301 8.8187 13.0404L12.874 12.7095C13.0311 12.6967 13.1675 12.5963 13.2265 12.4501L14.8409 8.44836Z" fill="white"/>
</svg>
