<svg width="32" height="32" viewBox="0 0 32 32" fill="none" xmlns="http://www.w3.org/2000/svg">
<rect width="32" height="32" rx="8" fill="#333333"/>
<path d="M14.3334 15.1667V11.9679C14.3334 11.5286 14.3333 11.1496 14.3589 10.8375C14.3858 10.508 14.4452 10.1803 14.6059 9.86503C14.8455 9.39462 15.228 9.01217 15.6984 8.77249C16.0137 8.61182 16.3414 8.55239 16.6709 8.52548C16.983 8.49997 17.3619 8.49999 17.8012 8.5H20.0322C20.4715 8.49999 20.8504 8.49997 21.1626 8.52548C21.492 8.55239 21.8197 8.61182 22.135 8.77249C22.6054 9.01217 22.9879 9.39462 23.2276 9.86503C23.3882 10.1803 23.4477 10.508 23.4746 10.8375C23.5001 11.1496 23.5001 11.5286 23.5 11.9679V20.0321C23.5001 20.4714 23.5001 20.8504 23.4746 21.1625C23.4477 21.492 23.3882 21.8197 23.2276 22.135C22.9879 22.6054 22.6054 22.9878 22.135 23.2275C21.8197 23.3882 21.492 23.4476 21.1626 23.4745C20.8504 23.5 20.4715 23.5 20.0322 23.5H17.8013C17.362 23.5 16.983 23.5 16.6709 23.4745C16.3414 23.4476 16.0137 23.3882 15.6984 23.2275C15.228 22.9878 14.8455 22.6054 14.6059 22.135C14.4452 21.8197 14.3858 21.492 14.3589 21.1625C14.3334 20.8504 14.3334 20.4714 14.3334 20.0321V16.8333H19.3334C19.7936 16.8333 20.1667 16.4602 20.1667 16C20.1667 15.5398 19.7936 15.1667 19.3334 15.1667H14.3334Z" fill="white"/>
<path d="M12.4226 17.9106C12.748 18.236 12.748 18.7637 12.4226 19.0891C12.0972 19.4145 11.5695 19.4145 11.2441 19.0891L8.74408 16.5891C8.41864 16.2637 8.41864 15.736 8.74408 15.4106L11.2441 12.9106C11.5695 12.5851 12.0972 12.5851 12.4226 12.9106C12.748 13.236 12.748 13.7637 12.4226 14.0891L11.3452 15.1665H14.3333V16.8332H11.3452L12.4226 17.9106Z" fill="white"/>
</svg>
