<svg width="32" height="32" viewBox="0 0 32 32" fill="none" xmlns="http://www.w3.org/2000/svg">
<rect width="32" height="32" rx="8" fill="#5770FF"/>
<path d="M8.5 18.0832C8.5 21.0747 10.9251 23.4998 13.9167 23.4998C16.9082 23.4998 19.3333 21.0747 19.3333 18.0832C19.3333 15.0916 16.9082 12.6665 13.9167 12.6665C10.9251 12.6665 8.5 15.0916 8.5 18.0832Z" fill="white"/>
<path d="M13.7416 10.6774C13.6401 10.8132 13.7472 11 13.9167 11C17.8288 11 21.0001 14.1713 21.0001 18.0833C21.0001 18.2529 21.1868 18.36 21.3227 18.2584C22.6444 17.2707 23.5001 15.6936 23.5001 13.9167C23.5001 10.9251 21.075 8.5 18.0834 8.5C16.3065 8.5 14.7294 9.35565 13.7416 10.6774Z" fill="white"/>
</svg>
