<svg width="120" height="88" viewBox="0 0 120 88" fill="none" xmlns="http://www.w3.org/2000/svg">
<path d="M102.59 45.4774C102.59 55.1261 99.363 64.0063 94.0127 71.1788C91.0403 75.0212 87.4734 78.4367 83.397 81.0837C76.7728 85.4384 68.8747 88 60.3821 88C37.0276 88 18.1741 68.9588 18.1741 45.5628C18.1741 22.0814 37.1125 3.12549 60.3821 3.12549C68.8747 3.12549 76.7728 5.68709 83.397 9.95644C87.4734 12.6034 91.0403 16.0189 94.0127 19.8613C99.448 26.9484 102.59 35.8287 102.59 45.4774Z" fill="#EAEEF9"/>
<path d="M25.7053 11.9963C26.8204 11.6319 27.4306 10.4276 27.0682 9.30639C26.7057 8.18521 25.5079 7.57173 24.3928 7.93613C23.2776 8.30054 22.6675 9.50484 23.0299 10.626C23.3924 11.7472 24.5902 12.3607 25.7053 11.9963Z" fill="#EAEEF9"/>
<path d="M30.3399 5.03146C31.0982 4.78367 31.5131 3.96475 31.2666 3.20235C31.0201 2.43996 30.2056 2.02278 29.4473 2.27057C28.6891 2.51836 28.2741 3.33728 28.5206 4.09968C28.7671 4.86208 29.5816 5.27925 30.3399 5.03146Z" fill="#EAEEF9"/>
<path d="M102.135 17.4222C103.451 16.2133 103.542 14.1609 102.34 12.8381C101.138 11.5152 99.0965 11.4228 97.7807 12.6317C96.465 13.8406 96.3731 15.8929 97.5755 17.2158C98.7779 18.5386 100.819 18.631 102.135 17.4222Z" fill="#EAEEF9"/>
<path d="M102.436 2.93866C102.99 2.42967 103.029 1.56552 102.522 1.00854C102.016 0.451551 101.157 0.412648 100.603 0.921644C100.049 1.43064 100.01 2.29479 100.516 2.85177C101.023 3.40876 101.882 3.44766 102.436 2.93866Z" fill="#EAEEF9"/>
<path d="M18.9384 83.1331H106.412" stroke="#EBF0F6" stroke-width="2" stroke-miterlimit="10" stroke-linecap="round" stroke-linejoin="round"/>
<path d="M87.1337 7.30933C88.4076 7.30933 89.5117 8.33397 89.5117 9.70016V80.4859C89.5117 81.7667 88.4925 82.8767 87.1337 82.8767H34.9894C33.7155 82.8767 32.6115 81.852 32.6115 80.4859V9.70016C32.6115 8.41935 33.6306 7.30933 34.9894 7.30933H87.1337Z" fill="#CED7E2"/>
<path d="M89.5117 14.738V80.4005C89.5117 81.6813 88.4926 82.7913 87.1338 82.7913H39.4905L35.3291 78.6074L82.6327 13.5426L86.7091 12.0056L89.5117 14.738Z" fill="#BCC4CF"/>
<path d="M87.3036 13.2012H35.7537V78.949C35.7537 79.4614 36.1783 79.8029 36.6029 79.8029H87.3036V13.2012Z" fill="#A6AFBA"/>
<path d="M86.879 12.7741C86.879 12.3472 86.5393 12.0056 86.1147 12.0056H36.0934C35.6688 12.0056 35.3291 12.3472 35.3291 12.7741V77.7535C35.3291 78.1804 35.6688 78.522 36.0934 78.522H86.0297C86.4544 78.522 86.7941 78.1804 86.7941 77.7535V12.7741H86.879Z" fill="#DFE7F0"/>
<g filter="url(#filter0_d_1888_6761)">
<path d="M86.8789 12.7741C86.8789 12.3472 86.5392 12.0056 86.1146 12.0056H36.0933C35.6687 12.0056 35.2441 12.3472 35.329 12.7741C35.9235 38.6463 36.1782 67.934 33.2908 75.5334L81.1889 74.8503C84.1613 61.7008 86.3693 38.0486 86.8789 12.7741Z" fill="#EDF4FA"/>
</g>
<path d="M31.2526 78.0097C31.3375 80.8275 29.0445 83.2184 26.242 83.3037H24.8832L21.1464 83.3891C15.5413 83.4745 10.8704 79.0344 10.7006 73.3989C10.5307 67.7633 15.0318 63.0671 20.6369 62.8963C26.242 62.7255 30.9129 67.251 31.0827 72.8865L31.1677 75.0212L31.2526 78.0097Z" fill="url(#paint0_linear_1888_6761)"/>
<path d="M30.1486 77.7535C30.2335 80.5713 27.9405 82.9621 25.138 83.0475H23.7792L17.5796 76.8143L22.845 70.6664L24.7983 69.5564L30.0637 74.8504L30.1486 77.7535Z" fill="url(#paint1_linear_1888_6761)"/>
<path d="M23.0998 73.2281L24.8832 71.4349C25.3928 70.9226 25.3928 70.1541 24.8832 69.6418C24.3737 69.1295 23.6093 69.1295 23.0998 69.6418L21.3164 71.4349L19.5329 69.6418C19.0234 69.1295 18.259 69.1295 17.7495 69.6418C17.2399 70.1541 17.2399 70.9226 17.7495 71.4349L19.5329 73.2281L17.7495 75.0212C17.2399 75.5335 17.2399 76.302 17.7495 76.8143C18.0043 77.0705 18.344 77.1558 18.6837 77.1558C19.0234 77.1558 19.3631 77.0705 19.6178 76.8143L21.4013 75.0212L23.1847 76.8143C23.6943 77.3266 24.4586 77.3266 24.9682 76.8143C25.2229 76.5581 25.3079 76.2166 25.3079 75.875C25.3079 75.5335 25.2229 75.192 24.9682 74.9358L23.0998 73.2281Z" fill="url(#paint2_linear_1888_6761)"/>
<g filter="url(#filter1_d_1888_6761)">
<path d="M86.794 12.0911C86.794 12.0911 86.709 16.0189 85.5201 40.8664C85.5201 41.0372 85.5201 41.208 85.5201 41.3788C84.0763 65.7994 62.4203 70.9226 59.7876 71.1788C58.5986 71.2641 56.3056 71.4349 52.1443 71.5203C47.0487 71.6911 39.2356 71.7765 27.0912 71.9472C26.6666 71.9472 26.4118 71.5203 26.5816 71.1788C35.0742 54.1868 35.1591 12.1765 35.1591 12.1765H86.794V12.0911Z" fill="white"/>
</g>
<path d="M74.9044 55.98H50.191C50.0212 55.98 49.8513 55.7238 49.8513 55.2969C49.8513 54.9553 50.0212 54.6138 50.191 54.6138H74.9893C75.1592 54.6138 75.329 54.8699 75.329 55.2969C75.329 55.6384 75.1592 55.98 74.9044 55.98Z" fill="#CED7E2"/>
<path d="M62.2505 59.8222H50.0212C49.8514 59.8222 49.6815 59.5661 49.6815 59.1391C49.6815 58.7976 49.8514 58.4561 50.0212 58.4561H62.2505C62.4204 58.4561 62.5902 58.7122 62.5902 59.1391C62.5902 59.4807 62.4204 59.8222 62.2505 59.8222Z" fill="#E3EAF2"/>
<path d="M78.8961 24.7282H54.0978C53.9279 24.7282 53.7581 24.4721 53.7581 24.0452C53.7581 23.7036 53.9279 23.3621 54.0978 23.3621H78.8961C79.0659 23.3621 79.2358 23.6182 79.2358 24.0452C79.2358 24.4721 79.0659 24.7282 78.8961 24.7282Z" fill="#CED7E2"/>
<path d="M78.726 28.5708H68.8746C68.7048 28.5708 68.5349 28.3146 68.5349 27.8877C68.5349 27.5461 68.7048 27.2046 68.8746 27.2046H78.726C78.8958 27.2046 79.0657 27.4607 79.0657 27.8877C79.0657 28.3146 78.8958 28.5708 78.726 28.5708Z" fill="#CED7E2"/>
<path d="M66.1569 28.5708H53.9276C53.7577 28.5708 53.5879 28.3146 53.5879 27.8877C53.5879 27.5461 53.7577 27.2046 53.9276 27.2046H66.1569C66.3267 27.2046 66.4966 27.4607 66.4966 27.8877C66.4966 28.3146 66.3267 28.5708 66.1569 28.5708Z" fill="#E3EAF2"/>
<path d="M85.4352 41.2935C83.9915 65.7141 62.3355 70.8373 59.7028 71.0935C58.5138 71.1789 56.2208 71.3496 52.0594 71.435C62.845 66.3972 68.62 57.4316 68.535 50.4299C73.8004 50.8568 82.8025 50.4298 85.4352 41.2935Z" fill="#EAEEF9"/>
<path d="M43.9065 28.8269C43.7367 28.8269 43.5668 28.7415 43.397 28.5707L40.9341 26.1799C40.6793 25.9237 40.6793 25.4114 40.9341 25.1552C41.1889 24.8991 41.6985 24.8991 41.9532 25.1552L43.9065 27.1191L47.898 23.1059C48.1528 22.8498 48.6624 22.8498 48.9171 23.1059C49.1719 23.3621 49.1719 23.8744 48.9171 24.1306L44.4161 28.6561C44.2462 28.7415 44.0764 28.8269 43.9065 28.8269Z" fill="#14EE97"/>
<path d="M77.7919 40.0127H52.9936C52.8238 40.0127 52.6539 39.7565 52.6539 39.3296C52.6539 38.988 52.8238 38.6465 52.9936 38.6465H77.7919C77.9618 38.6465 78.1316 38.9026 78.1316 39.3296C78.1316 39.6711 77.9618 40.0127 77.7919 40.0127Z" fill="#CED7E2"/>
<path d="M65.0531 43.855H52.8238C52.654 43.855 52.4841 43.5988 52.4841 43.1719C52.4841 42.8303 52.654 42.4888 52.8238 42.4888H65.0531C65.223 42.4888 65.3928 42.7449 65.3928 43.1719C65.4778 43.5134 65.3079 43.855 65.0531 43.855Z" fill="#E3EAF2"/>
<path d="M42.8024 44.1113C42.6326 44.1113 42.4627 44.0259 42.2929 43.8551L39.915 41.4643C39.6602 41.2081 39.6602 40.6958 39.915 40.4396C40.1697 40.1835 40.6793 40.1835 40.9341 40.4396L42.8874 42.4035L46.8789 38.3904C47.1336 38.1342 47.6432 38.1342 47.898 38.3904C48.1528 38.6465 48.1528 39.1588 47.898 39.415L43.312 43.8551C43.2271 44.0259 43.0572 44.1113 42.8024 44.1113Z" fill="#14EE97"/>
<path d="M73.2059 7.48017C73.2059 7.39478 73.2059 7.39478 73.2059 7.48017L72.6964 6.96784C72.6964 6.96784 72.4416 7.05323 72.2717 7.22401H64.5435C64.5435 7.05323 64.5435 6.88246 64.5435 6.71168C64.5435 5.08933 63.1847 3.72314 61.5711 3.72314C59.9575 3.72314 58.5987 5.08933 58.5987 6.71168C58.5987 6.88246 58.5987 7.05323 58.6836 7.13862H50.5308C50.1061 7.13862 49.6815 7.48017 49.6815 7.99249V10.6395C49.6815 12.6034 51.0403 13.7988 52.9936 13.7988H69.6391C71.5923 13.7988 73.3758 12.6034 73.3758 10.6395V7.99249C73.4607 7.82171 73.3758 7.65094 73.2059 7.48017Z" fill="#1C3754"/>
<path d="M72.9512 7.48028V10.1273C72.9512 10.298 72.9512 10.4688 72.9512 10.6396C72.6965 12.3473 71.2527 13.7135 69.4693 13.7135H52.7389C50.9555 13.7135 49.5117 12.3473 49.257 10.6396C49.257 10.4688 49.257 10.298 49.257 10.1273V7.48028C49.257 7.05335 49.5967 6.62641 50.1062 6.62641H58.2591C58.2591 6.45564 58.2591 6.37025 58.2591 6.19948C58.2591 4.57713 59.6179 3.21094 61.2315 3.21094C62.8451 3.21094 64.2039 4.57713 64.2039 6.19948C64.2039 6.37025 64.2039 6.45564 64.2039 6.62641H72.3567C72.6115 6.7118 72.9512 7.05335 72.9512 7.48028Z" fill="#2D5887"/>
<path d="M61.0617 7.56563C61.8121 7.56563 62.4205 6.95397 62.4205 6.19944C62.4205 5.44492 61.8121 4.83325 61.0617 4.83325C60.3112 4.83325 59.7029 5.44492 59.7029 6.19944C59.7029 6.95397 60.3112 7.56563 61.0617 7.56563Z" fill="#EAEEF9"/>
<path d="M72.8663 10.6396C72.6115 12.3474 71.1678 13.7136 69.3843 13.7136H52.7389C50.9555 13.7136 49.5117 12.3474 49.257 10.6396H72.8663Z" fill="#316094"/>
<path opacity="0.5" d="M66.4118 9.4442H55.5413C55.2866 9.4442 55.1167 9.27343 55.1167 9.01727C55.1167 8.76111 55.2866 8.59033 55.5413 8.59033H66.4118C66.6666 8.59033 66.8364 8.76111 66.8364 9.01727C66.8364 9.27343 66.6666 9.4442 66.4118 9.4442Z" fill="#1C3754"/>
<path d="M10.2761 36.2559C10.2761 36.2559 1.86845 38.3905 4.41622 40.0983C6.96399 41.7206 12.9937 44.5384 18.6837 42.6599C24.3738 40.7814 18.6837 38.1344 18.7687 38.1344C18.8536 38.1344 10.2761 36.2559 10.2761 36.2559Z" fill="#CED7E2"/>
<path d="M0 35.5726C3.05732 36.5119 12.4841 34.9749 18.5138 31.0471C23.2696 36.9388 25.0531 38.4758 26.7516 38.6465C24.1189 41.2935 15.3716 45.5629 10.4459 40.0127C4.67091 43.6844 0 35.5726 0 35.5726Z" fill="#DFE7F0"/>
<path d="M93.3333 65.1164C96.5604 65.2872 105.308 61.3594 110.064 56.0654C116.178 60.5909 118.216 61.6156 120 61.3594C118.047 64.6041 112.102 71.6912 103.694 72.2035C97.5795 68.6173 93.3333 65.1164 93.3333 65.1164Z" fill="#DFE7F0"/>
<path d="M42.4628 58.9684C43.5885 58.9684 44.501 58.0509 44.501 56.9192C44.501 55.7874 43.5885 54.8699 42.4628 54.8699C41.3371 54.8699 40.4246 55.7874 40.4246 56.9192C40.4246 58.0509 41.3371 58.9684 42.4628 58.9684Z" fill="url(#paint3_linear_1888_6761)"/>
<defs>
<filter id="filter0_d_1888_6761" x="30.2908" y="12.0056" width="59.5881" height="69.5278" filterUnits="userSpaceOnUse" color-interpolation-filters="sRGB">
<feFlood flood-opacity="0" result="BackgroundImageFix"/>
<feColorMatrix in="SourceAlpha" type="matrix" values="0 0 0 0 0 0 0 0 0 0 0 0 0 0 0 0 0 0 127 0" result="hardAlpha"/>
<feOffset dy="3"/>
<feGaussianBlur stdDeviation="1.5"/>
<feColorMatrix type="matrix" values="0 0 0 0 0.397708 0 0 0 0 0.47749 0 0 0 0 0.575 0 0 0 0.18 0"/>
<feBlend mode="normal" in2="BackgroundImageFix" result="effect1_dropShadow_1888_6761"/>
<feBlend mode="normal" in="SourceGraphic" in2="effect1_dropShadow_1888_6761" result="shape"/>
</filter>
<filter id="filter1_d_1888_6761" x="22.5284" y="12.0911" width="68.2655" height="68.8562" filterUnits="userSpaceOnUse" color-interpolation-filters="sRGB">
<feFlood flood-opacity="0" result="BackgroundImageFix"/>
<feColorMatrix in="SourceAlpha" type="matrix" values="0 0 0 0 0 0 0 0 0 0 0 0 0 0 0 0 0 0 127 0" result="hardAlpha"/>
<feOffset dy="5"/>
<feGaussianBlur stdDeviation="2"/>
<feColorMatrix type="matrix" values="0 0 0 0 0.397708 0 0 0 0 0.47749 0 0 0 0 0.575 0 0 0 0.18 0"/>
<feBlend mode="normal" in2="BackgroundImageFix" result="effect1_dropShadow_1888_6761"/>
<feBlend mode="normal" in="SourceGraphic" in2="effect1_dropShadow_1888_6761" result="shape"/>
</filter>
<linearGradient id="paint0_linear_1888_6761" x1="32.1774" y1="44.9552" x2="6.40006" y2="47.5239" gradientUnits="userSpaceOnUse">
<stop stop-color="#14EE97"/>
<stop offset="0.0001" stop-color="#FF3D00"/>
<stop offset="0.488065" stop-color="#FF511A"/>
<stop offset="1" stop-color="#FFBFAB"/>
</linearGradient>
<linearGradient id="paint1_linear_1888_6761" x1="16.5" y1="73" x2="12.1972" y2="80.9911" gradientUnits="userSpaceOnUse">
<stop offset="0.0001" stop-color="#FF3D00"/>
<stop offset="0.488065" stop-color="#FF511A"/>
<stop offset="1" stop-color="#FFBFAB"/>
</linearGradient>
<linearGradient id="paint2_linear_1888_6761" x1="24.649" y1="76.6701" x2="18.1657" y2="70.1707" gradientUnits="userSpaceOnUse">
<stop offset="0.0113208" stop-color="#FFC9E3"/>
<stop offset="1" stop-color="white"/>
</linearGradient>
<linearGradient id="paint3_linear_1888_6761" x1="40.4322" y1="56.8896" x2="44.5365" y2="56.8896" gradientUnits="userSpaceOnUse">
<stop stop-color="#FF66A9"/>
<stop offset="1" stop-color="#F53689"/>
</linearGradient>
</defs>
</svg>
