<svg width="18" height="18" viewBox="0 0 18 18" fill="none" xmlns="http://www.w3.org/2000/svg">
<path fill-rule="evenodd" clip-rule="evenodd" d="M9 0C8.44772 0 8 0.447715 8 1V2C8 2.02775 8.00113 2.05523 8.00335 2.08241C5.16401 2.55712 3.00004 5.02585 3.00004 8V9.95735C3.00004 10.3881 2.84413 10.8042 2.56112 11.1289L1.91668 11.8682C-0.170141 14.2623 1.53019 18 4.70609 18H13.294C16.4699 18 18.1702 14.2623 16.0834 11.8682L15.439 11.1289C15.156 10.8042 15 10.3881 15 9.95736V8C15 5.02582 12.836 2.55707 9.99665 2.08239C9.99887 2.05522 10 2.02774 10 2V1C10 0.447715 9.55228 0 9 0ZM5.00004 8C5.00004 5.79086 6.7909 4 9.00004 4C11.2092 4 13 5.79086 13 8V9.95736C13 10.8712 13.3308 11.7542 13.9313 12.443L14.5758 13.1824C15.5347 14.2825 14.7534 16 13.294 16H4.70609C3.24672 16 2.4654 14.2825 3.42432 13.1824L4.06876 12.443C4.66924 11.7542 5.00004 10.8712 5.00004 9.95735V8Z" fill="#999999"/>
</svg>
