<svg width="32" height="32" viewBox="0 0 32 32" fill="none" xmlns="http://www.w3.org/2000/svg">
<rect width="32" height="32" rx="8" fill="#07BAAD"/>
<path d="M9.33334 9.33334C8.41286 9.33334 7.66667 10.0795 7.66667 11V19.3333C7.66667 20.2538 8.41286 21 9.33334 21H17.6667V11C17.6667 10.0795 16.9205 9.33334 16 9.33334H9.33334Z" fill="white"/>
<path d="M19.8438 11.8333H17.6667V21H22.6667C23.5871 21 24.3333 20.2538 24.3333 19.3333V16.0738C24.3333 15.6051 24.136 15.158 23.7896 14.8422L20.9667 12.2684C20.6597 11.9885 20.2592 11.8333 19.8438 11.8333Z" fill="white"/>
<path fill-rule="evenodd" clip-rule="evenodd" d="M13.0119 22.1785C13.3244 21.866 13.5 21.442 13.5 21H11.8333H10.1667C10.1667 21.442 10.3423 21.866 10.6548 22.1785C10.9674 22.4911 11.3913 22.6667 11.8333 22.6667C12.2754 22.6667 12.6993 22.4911 13.0119 22.1785ZM21.3452 22.1785C21.6577 21.866 21.8333 21.442 21.8333 21H20.1667H18.5C18.5 21.442 18.6756 21.866 18.9882 22.1785C19.3007 22.4911 19.7246 22.6667 20.1667 22.6667C20.6087 22.6667 21.0326 22.4911 21.3452 22.1785Z" fill="white"/>
</svg>
