<svg width="45" height="45" viewBox="0 0 45 45" fill="none" xmlns="http://www.w3.org/2000/svg">
<rect x="0.274414" y="0.224609" width="44.687" height="44.687" rx="13.0971" fill="#E4F3EA"/>
<path d="M31.8263 19.0526C31.5926 18.4893 30.8572 18.1523 29.8582 18.1523C29.6651 18.1537 29.4721 18.1649 29.2801 18.1858C29.7974 17.8094 30.1761 17.2727 30.3572 16.659C30.4024 16.412 30.3833 16.1575 30.3018 15.92C30.2202 15.6825 30.0791 15.4699 29.8917 15.3026C29.7223 15.1147 29.5076 14.9733 29.268 14.8918C29.0285 14.8104 28.7721 14.7915 28.5232 14.8371C27.9098 15.0167 27.3725 15.3933 26.9945 15.9087C27.0151 15.7157 27.026 15.5218 27.0271 15.3277C27.0271 14.3288 26.691 13.5933 26.1269 13.3606C25.9165 13.2835 25.6876 13.273 25.4711 13.3305C25.2546 13.3879 25.061 13.5106 24.9166 13.6818C24.763 13.8344 24.3236 14.2795 24.1187 16.6358C23.6601 16.5054 23.1721 16.5226 22.7238 16.685C22.2754 16.8474 21.8896 17.1468 21.6209 17.5407L14.1256 28.2469C13.9373 28.5159 13.8498 28.8425 13.8784 29.1696C13.907 29.4967 14.0499 29.8032 14.282 30.0353L15.1525 30.9058C15.3846 31.1379 15.6912 31.2809 16.0182 31.3095C16.3453 31.3381 16.672 31.2505 16.9409 31.0622L27.6471 23.5669C28.0416 23.2979 28.3411 22.9113 28.5031 22.4622C28.6651 22.013 28.6812 21.5242 28.5493 21.0654C30.1152 20.9294 31.1076 20.6613 31.5023 20.2666C31.6745 20.122 31.798 19.928 31.856 19.7107C31.914 19.4935 31.9036 19.2637 31.8263 19.0526ZM28.7019 15.7513C28.8019 15.7343 28.9047 15.7448 28.9991 15.7817C29.0936 15.8186 29.1762 15.8805 29.2382 15.9608C29.3165 16.0215 29.3769 16.1023 29.413 16.1946C29.449 16.2869 29.4594 16.3872 29.443 16.4849C29.2987 17.2437 27.7672 18.1989 26.6687 18.7193L26.4676 18.5182C26.9862 17.4206 27.9404 15.8956 28.7019 15.7513ZM25.5794 14.339C25.6772 14.2459 25.7507 14.2096 25.7768 14.2199C25.8783 14.2618 26.1008 14.5988 26.1008 15.3268C26.0595 16.1434 25.9214 16.9522 25.6893 17.7362L25.1782 17.2251C25.1316 17.1785 25.0767 17.1459 25.0264 17.104C25.1521 15.2495 25.4296 14.4889 25.5794 14.339ZM16.4074 30.2951C16.3177 30.358 16.2087 30.3873 16.0996 30.3778C15.9904 30.3682 15.8881 30.3205 15.8107 30.2429L14.9402 29.3725C14.8634 29.2949 14.8163 29.1929 14.8072 29.0842C14.798 28.9754 14.8273 28.8669 14.8899 28.7776L16.2929 26.7741L18.4109 28.8986L16.4074 30.2951ZM27.1137 22.7988L25.3793 24.0091L23.7584 22.3874C23.6712 22.2999 23.5527 22.2508 23.4292 22.2507C23.3057 22.2506 23.1872 22.2996 23.0998 22.3869C23.0124 22.4742 22.9632 22.5926 22.9631 22.7161C22.963 22.8396 23.012 22.9581 23.0993 23.0456L24.6056 24.5519L22.2782 26.1783L20.6155 24.5156C20.5277 24.4308 20.4101 24.3839 20.288 24.3849C20.166 24.386 20.0492 24.4349 19.9629 24.5212C19.8766 24.6075 19.8277 24.7243 19.8266 24.8463C19.8256 24.9684 19.8725 25.086 19.9573 25.1738L21.5083 26.7257L19.1808 28.3521L16.8329 25.9995L20.6276 20.5785L21.714 21.6649C21.757 21.7094 21.8083 21.7448 21.8651 21.7692C21.9219 21.7936 21.983 21.8065 22.0448 21.807C22.1066 21.8075 22.1679 21.7958 22.2251 21.7724C22.2823 21.749 22.3343 21.7144 22.378 21.6707C22.4217 21.627 22.4563 21.575 22.4797 21.5178C22.5031 21.4606 22.5148 21.3993 22.5143 21.3375C22.5138 21.2757 22.5009 21.2146 22.4765 21.1578C22.4521 21.101 22.4167 21.0496 22.3722 21.0067L21.1703 19.8039L22.3806 18.0695C22.4975 17.902 22.6498 17.7624 22.8269 17.6605C23.0039 17.5586 23.2012 17.4971 23.4047 17.4802C23.4456 17.4802 23.4866 17.4746 23.5266 17.4746C23.8967 17.4747 24.2517 17.6217 24.5135 17.8833L27.2999 20.6697C27.3317 20.7047 27.3612 20.7417 27.3883 20.7805C27.4146 20.8701 27.4679 20.9495 27.541 21.0076C27.7037 21.3066 27.75 21.6553 27.6709 21.9863C27.5919 22.3174 27.393 22.6075 27.1128 22.8007L27.1137 22.7988ZM30.8451 19.6037C30.6933 19.7545 29.9308 20.032 28.081 20.1623C28.0391 20.112 28.0056 20.0571 27.959 20.0106L27.4479 19.4995C28.2316 19.2649 29.0404 19.1249 29.8573 19.0824C30.5853 19.0824 30.9223 19.3058 30.9652 19.4073C30.9754 19.4315 30.9437 19.5069 30.846 19.6056L30.8451 19.6037Z" fill="#3A9B7A"/>
</svg>
