<svg width="16" height="16" viewBox="0 0 16 16" fill="none" xmlns="http://www.w3.org/2000/svg">
<path fill-rule="evenodd" clip-rule="evenodd" d="M11.7197 2.11519C13.0724 1.60444 14.3956 2.92759 13.8848 4.28032L10.7023 12.7093C10.0235 14.507 7.44711 14.4063 6.91071 12.5611L6.23104 10.2231C6.16735 10.004 5.99605 9.83267 5.77697 9.76898L3.43887 9.0893C1.59365 8.5529 1.49297 5.97649 3.29069 5.29773L11.7197 2.11519ZM12.6374 3.80934C12.7428 3.53021 12.4698 3.25718 12.1907 3.36257L3.76167 6.54511C3.16242 6.77137 3.19599 7.63017 3.81106 7.80897L6.14916 8.48865C6.80641 8.67971 7.32031 9.19361 7.51137 9.85086L8.19104 12.1889C8.36984 12.804 9.22864 12.8376 9.4549 12.2383L12.6374 3.80934Z" fill="#FF511A"/>
</svg>
