<svg width="15" height="14" viewBox="0 0 15 14" fill="none" xmlns="http://www.w3.org/2000/svg">
<path fill-rule="evenodd" clip-rule="evenodd" d="M4.79892 0.166657H10.2011C10.8719 0.166646 11.4255 0.166637 11.8765 0.203485C12.3449 0.241756 12.7755 0.323893 13.18 0.529969C13.8072 0.849547 14.3171 1.35948 14.6367 1.98669C14.8428 2.39114 14.9249 2.82172 14.9632 3.29014C15 3.74113 15 4.29476 15 4.96555V8.70109C15 9.37189 15 9.92552 14.9632 10.3765C14.9249 10.8449 14.8428 11.2755 14.6367 11.68C14.3171 12.3072 13.8072 12.8171 13.18 13.1367C12.7755 13.3428 12.3449 13.4249 11.8765 13.4632C11.4255 13.5 10.8719 13.5 10.2011 13.5H4.79894C4.12812 13.5 3.57448 13.5 3.12348 13.4632C2.65506 13.4249 2.22448 13.3428 1.82003 13.1367C1.19283 12.8171 0.68289 12.3072 0.363312 11.68C0.157237 11.2755 0.0750998 10.8449 0.0368288 10.3765C-1.90114e-05 9.92552 -1.02701e-05 9.37188 3.59409e-07 8.70107V4.96558C-1.02701e-05 4.29477 -1.90114e-05 3.74113 0.0368288 3.29014C0.0750998 2.82172 0.157237 2.39114 0.363312 1.98669C0.68289 1.35948 1.19283 0.849547 1.82003 0.529969C2.22448 0.323893 2.65506 0.241756 3.12348 0.203485C3.57448 0.166637 4.12811 0.166646 4.79892 0.166657ZM3.2592 1.86462C2.89385 1.89447 2.70702 1.94857 2.57668 2.01498C2.26308 2.17477 2.00811 2.42974 1.84832 2.74334C1.78191 2.87367 1.72781 3.06051 1.69796 3.42586C1.66732 3.80093 1.66667 4.28617 1.66667 4.99999V8.66666C1.66667 9.38047 1.66732 9.86572 1.69796 10.2408C1.72781 10.6061 1.78191 10.793 1.84832 10.9233C2.00811 11.2369 2.26308 11.4919 2.57668 11.6517C2.70702 11.7181 2.89385 11.7722 3.2592 11.802C3.63427 11.8327 4.11952 11.8333 4.83333 11.8333H10.1667C10.8805 11.8333 11.3657 11.8327 11.7408 11.802C12.1061 11.7722 12.293 11.7181 12.4233 11.6517C12.7369 11.4919 12.9919 11.2369 13.1517 10.9233C13.2181 10.793 13.2722 10.6061 13.302 10.2408C13.3327 9.86572 13.3333 9.38047 13.3333 8.66666V4.99999C13.3333 4.28617 13.3327 3.80093 13.302 3.42586C13.2722 3.06051 13.2181 2.87367 13.1517 2.74334C12.9919 2.42974 12.7369 2.17477 12.4233 2.01498C12.293 1.94857 12.1061 1.89447 11.7408 1.86462C11.3657 1.83397 10.8805 1.83332 10.1667 1.83332H4.83333C4.11952 1.83332 3.63427 1.83397 3.2592 1.86462Z" fill="#999999"/>
</svg>
